<svg id="图层_1" data-name="图层 1" xmlns="http://www.w3.org/2000/svg" viewBox="0 0 160 160">
  <defs>
    <style>
      .cls-1 {
        fill: #93cbf5;
      }

      .cls-2, .cls-3 {
        fill: #61b5f3;
      }

      .cls-2, .cls-4 {
        fill-rule: evenodd;
      }

      .cls-4 {
        fill: #cce9fe;
      }

      .cls-5 {
        fill: #53738b;
      }

      .cls-6 {
        fill: #5eccf6;
      }
    </style>
  </defs>
  <title>mcookie人物V2</title>
  <g>
    <path class="cls-1" d="M58.08,141.55H58a3.08,3.08,0,0,1-3-3.18L55.69,116a3.09,3.09,0,1,1,6.17.19l-.69,22.42A3.1,3.1,0,0,1,58.08,141.55ZM86.62,141a3.09,3.09,0,0,1-3.07-2.87L82,115.74a3.09,3.09,0,1,1,6.16-.44l1.59,22.37a3.09,3.09,0,0,1-2.86,3.3ZM18.37,111.25a6.94,6.94,0,0,1-1.64-.19c-6.86-1.71-7.92-12.58-8.12-20.61a3.09,3.09,0,0,1,6.17-.15c.35,13.83,3.41,14.76,3.44,14.76,2.89.73,11.13-8.56,17.29-19.47a3.08,3.08,0,0,1,5.37,3C37.77,94.14,27.39,111.25,18.37,111.25Zm97.21-19.14c-7.69,0-12-3.92-12.19-4.1a3.09,3.09,0,0,1,4.19-4.54c.18.16,3.57,3,9.87,2.37,6.9-.75,18.27-5.94,33.27-26.44a3.09,3.09,0,1,1,5,3.65c-13.24,18.08-26,27.83-37.91,29C117,92.08,116.29,92.11,115.58,92.11Z"/>
    <path class="cls-2" d="M115.48,64.28A12.23,12.23,0,0,0,104,53.94a487.32,487.32,0,0,0-66.29,1.28A12.29,12.29,0,0,0,26.53,66.5a212.22,212.22,0,0,0,.9,42.19,12.23,12.23,0,0,0,11.1,10.72,308,308,0,0,0,67.26-1.29,12.27,12.27,0,0,0,10.5-10.69,158.68,158.68,0,0,0-.81-43.15Z"/>
    <path class="cls-3" d="M71,58.83a3.08,3.08,0,0,1-3-2.41c-1.62-7.18-1.44-21.71,10.84-25.25a3.09,3.09,0,0,1,1.71,5.93C70.74,39.93,74,54.91,74,55.06a3.08,3.08,0,0,1-2.33,3.69A2.68,2.68,0,0,1,71,58.83Z"/>
    <path class="cls-2" d="M76.31,26.06a7.86,7.86,0,1,1-7.71,8,7.86,7.86,0,0,1,7.71-8Z"/>
    <g>
      <path class="cls-4" d="M60.62,96.33a7.36,7.36,0,0,1-6,2.89c-3.8-.07-7.6-.2-11.4-.37a6.42,6.42,0,0,1-6.06-5.71,116,116,0,0,1-.4-20.33,6.41,6.41,0,0,1,5.93-6A536.59,536.59,0,0,1,98.76,65.7a6.42,6.42,0,0,1,6.16,5.79,133.56,133.56,0,0,1,.37,20.2,6.42,6.42,0,0,1-5.84,6q-5.57.48-11.13.81a7.32,7.32,0,0,1-6.22-2.8c-2.42-3.08-5.86-5.69-10.55-5.6-4.91.1-8.47,3-10.93,6.2Z"/>
      <path class="cls-1" d="M54.77,101.69h-.18c-3.79-.07-7.65-.2-11.47-.38a8.84,8.84,0,0,1-8.4-7.91,120.39,120.39,0,0,1-.41-20.75,8.93,8.93,0,0,1,8.22-8.28,543.61,543.61,0,0,1,56.31-1.14,8.89,8.89,0,0,1,8.53,8,136,136,0,0,1,.38,20.56,8.92,8.92,0,0,1-8.09,8.36c-3.73.32-7.49.6-11.19.82a9.83,9.83,0,0,1-8.32-3.75c-2.47-3.15-5.36-4.72-8.55-4.65-3.38.07-6.42,1.83-9,5.23A9.84,9.84,0,0,1,54.77,101.69Zm27.11-33.8c-12.84,0-25.9.47-39,1.41A4,4,0,0,0,39.24,73a115.57,115.57,0,0,0,.39,19.9,3.92,3.92,0,0,0,3.73,3.51c3.77.17,7.58.3,11.33.37a4.83,4.83,0,0,0,4-1.92h0c3.51-4.59,8-7.07,12.84-7.17S80.6,89.83,84,94.2a4.86,4.86,0,0,0,4.13,1.87c3.66-.22,7.38-.49,11.07-.81a4,4,0,0,0,3.58-3.71,132.8,132.8,0,0,0-.36-19.82,4,4,0,0,0-3.79-3.56Q90.36,67.9,81.88,67.89Z"/>
    </g>
    <path class="cls-5" d="M59.19,86.11a1.75,1.75,0,0,1-.55-.08l-10.43-3a2,2,0,1,1,1.09-3.87l10.43,3a2,2,0,0,1-.54,3.94Zm23.36-.47a2,2,0,0,1-.62-3.91l10.3-3.38a2,2,0,1,1,1.25,3.82l-10.3,3.37A2,2,0,0,1,82.55,85.64Z"/>
    <path class="cls-6" d="M81.32,49.83a1.23,1.23,0,0,1-.39-2.4,14.22,14.22,0,1,0-18-9,1.24,1.24,0,0,1-2.35.77,16.7,16.7,0,1,1,21.1,10.61A1.32,1.32,0,0,1,81.32,49.83Z"/>
  </g>
</svg>
