<svg id="图层_1" data-name="图层 1" xmlns="http://www.w3.org/2000/svg" viewBox="0 0 160 160">
  <defs>
    <style>
      .cls-1, .cls-5 {
        fill: #74cdd6;
      }

      .cls-2 {
        fill: #49c2c3;
      }

      .cls-2, .cls-3, .cls-4, .cls-5 {
        fill-rule: evenodd;
      }

      .cls-3 {
        fill: #e3ffff;
      }

      .cls-4 {
        fill: #6b9292;
      }
    </style>
  </defs>
  <title>mcookie人物V2</title>
  <g>
    <path class="cls-1" d="M87,132.77a3,3,0,0,1-3-2.89l-1-45a3,3,0,0,1,2.89-3H86A3,3,0,0,1,89,84.73l1,45a3,3,0,0,1-2.88,3Z"/>
    <path class="cls-1" d="M125,113.38c-10.71,0-19.84-1.19-24.59-6.5-2.7-3-3.68-7-2.92-11.88a3.11,3.11,0,1,1,6.15,1c-.46,3,0,5.2,1.41,6.78,4.7,5.25,19.83,4.61,33.18,4,3.51-.14,7.13-.3,10.59-.35h.05a3.12,3.12,0,0,1,0,6.23c-3.37.06-7,.21-10.43.36C133.83,113.19,129.27,113.38,125,113.38Zm-91.33,0c-4.3,0-8.86-.19-13.49-.38-3.47-.15-7.06-.3-10.43-.36a3.11,3.11,0,1,1,.1-6.22c3.46,0,7.08.21,10.59.35,13.35.57,28.48,1.21,33.18-4C55,101.15,55.46,98.93,55,96a3.11,3.11,0,0,1,6.15-1c.76,4.87-.23,8.87-2.92,11.88C53.48,112.19,44.35,113.38,33.64,113.38Z"/>
    <path class="cls-1" d="M71.52,132.86h-.16a3,3,0,0,1-2.85-3.18L71,85a3,3,0,0,1,6,.33L74.54,130A3,3,0,0,1,71.52,132.86Z"/>
    <path class="cls-2" d="M33.24,55.76c.91-8.3,8.13-14.75,17-15.2a569.55,569.55,0,0,1,57,0c9.12.45,16.45,7.2,17.09,15.74a161,161,0,0,1,0,25.33c-.66,8.32-7.66,15-16.52,15.65a359.64,359.64,0,0,1-58.06.06c-8.58-.72-15.43-7-16.36-15.06a118.42,118.42,0,0,1-.08-26.48Z"/>
    <g>
      <path class="cls-3" d="M58.15,51c-8.72,0-15.81,6.65-15.81,14.83S49.43,80.7,58.15,80.7,74,74.06,74,65.87,66.88,51,58.15,51Z"/>
      <path class="cls-1" d="M58.15,82.67c-9.8,0-17.77-7.54-17.77-16.8s8-16.79,17.77-16.79,17.78,7.53,17.78,16.79S68,82.67,58.15,82.67Zm0-29.67C50.51,53,44.3,58.78,44.3,65.87s6.21,12.87,13.85,12.87S72,73,72,65.87,65.79,53,58.15,53Z"/>
    </g>
    <g>
      <path class="cls-3" d="M98.18,51c-8.73,0-15.81,6.65-15.81,14.83S89.45,80.7,98.18,80.7,114,74.06,114,65.87,106.91,51,98.18,51Z"/>
      <path class="cls-1" d="M98.18,82.67c-9.8,0-17.77-7.54-17.77-16.8s8-16.79,17.77-16.79S116,56.61,116,65.87,108,82.67,98.18,82.67Zm0-29.67c-7.64,0-13.85,5.78-13.85,12.87s6.21,12.87,13.85,12.87S112,73,112,65.87,105.82,53,98.18,53Z"/>
    </g>
    <path class="cls-4" d="M49.72,66.35c0,1.32,3.78,2.39,8.43,2.39s8.43-1.07,8.43-2.39S62.8,64,58.15,64,49.72,65,49.72,66.35Z"/>
    <path class="cls-4" d="M89.75,66.35c0,1.32,3.78,2.39,8.43,2.39s8.43-1.07,8.43-2.39S102.83,64,98.18,64,89.75,65,89.75,66.35Z"/>
    <path class="cls-5" d="M71.45,126.69a5.93,5.93,0,1,0,6.31,5.92,6.12,6.12,0,0,0-6.31-5.92Z"/>
    <path class="cls-5" d="M87.56,126.69a5.93,5.93,0,1,0,6.31,5.92,6.12,6.12,0,0,0-6.31-5.92Z"/>
    <path class="cls-5" d="M151.65,102.87a5.93,5.93,0,1,0,6.3,5.92,6.13,6.13,0,0,0-6.3-5.92Z"/>
    <path class="cls-5" d="M9.77,103.77a5.93,5.93,0,1,0,0,11.83,5.93,5.93,0,1,0,0-11.83Z"/>
  </g>
</svg>
