<svg id="图层_1" data-name="图层 1" xmlns="http://www.w3.org/2000/svg" viewBox="0 0 160 160">
  <defs>
    <style>
      .cls-1, .cls-6 {
        fill: #60c8d5;
      }

      .cls-2, .cls-7 {
        fill: #74cdd6;
      }

      .cls-3 {
        fill: #49c2c3;
      }

      .cls-3, .cls-4, .cls-5, .cls-6, .cls-7 {
        fill-rule: evenodd;
      }

      .cls-4 {
        fill: #e3ffff;
      }

      .cls-5 {
        fill: #6b9292;
      }
    </style>
  </defs>
  <title>mcookie人物V2</title>
  <g>
    <path class="cls-1" d="M68.69,134a3.07,3.07,0,0,1-2.79-1.78c-8.06-17.22-7.72-33.68,1-50.33a3.09,3.09,0,0,1,5.47,2.87c-7.9,15-8.19,29.28-.91,44.85a3.09,3.09,0,0,1-1.49,4.1A3,3,0,0,1,68.69,134Z"/>
    <path class="cls-2" d="M84.06,134a3.08,3.08,0,0,1-1.83-5.57c6.09-4.48,9.4-9.17,10.09-14.35,1.21-9-5.58-19-13.11-28.51a3.09,3.09,0,0,1,4.84-3.84C92.42,92.3,100,103.63,98.44,114.9c-.93,6.93-5,13-12.56,18.5A3.1,3.1,0,0,1,84.06,134ZM32,122.67a17.75,17.75,0,0,1-12.55-5C8.8,107.31,11.32,85.3,26.39,57.3a3.09,3.09,0,0,1,5.43,2.93c-20,37.07-11.2,50-8,53,4.09,4,10.68,4.28,16.79.76,12.55-7.22,13.71-23,10.88-34.31a3.09,3.09,0,1,1,6-1.49c2.33,9.32,2,18.23-.92,25.77a30.36,30.36,0,0,1-12.87,15.39A23.48,23.48,0,0,1,32,122.67Zm89.78-5.52a21.76,21.76,0,0,1-9.27-2.19,29.71,29.71,0,0,1-13.16-12.85A37.66,37.66,0,0,1,95.45,80a3.09,3.09,0,0,1,6.14.69c-1.18,10.54,2.57,23.5,13.58,28.72,5.48,2.59,10.79,2,14.23-1.49,3.06-3.15,11.49-16.55-8.88-56.9A3.09,3.09,0,1,1,126,48.21c8.09,16,12.69,29.87,13.69,41.18,1.12,12.7-2.59,19.41-5.9,22.81A16.5,16.5,0,0,1,121.8,117.15Z"/>
    <path class="cls-3" d="M122,52.61a17.92,17.92,0,0,0-16.87-16.07,529.4,529.4,0,0,0-56.48,0A17.91,17.91,0,0,0,31.73,53.14a179.84,179.84,0,0,0,.05,26.77A17.91,17.91,0,0,0,48.15,96.45a333.33,333.33,0,0,0,57.56.07A17.92,17.92,0,0,0,121.93,80.6a133.61,133.61,0,0,0,.08-28Z"/>
    <g>
      <path class="cls-4" d="M97.31,47.62A15.68,15.68,0,1,1,81.63,63.3,15.69,15.69,0,0,1,97.31,47.62Z"/>
      <path class="cls-2" d="M97.31,81A17.69,17.69,0,1,1,115,63.3,17.7,17.7,0,0,1,97.31,81Zm0-31.35A13.67,13.67,0,1,0,111,63.3,13.68,13.68,0,0,0,97.31,49.63Z"/>
    </g>
    <g>
      <path class="cls-4" d="M57.63,47.62A15.68,15.68,0,1,1,42,63.3,15.69,15.69,0,0,1,57.63,47.62Z"/>
      <path class="cls-1" d="M57.63,81A17.69,17.69,0,1,1,75.31,63.3,17.71,17.71,0,0,1,57.63,81Zm0-31.35A13.67,13.67,0,1,0,71.3,63.3,13.68,13.68,0,0,0,57.63,49.63Z"/>
    </g>
    <path class="cls-5" d="M50.31,58.77c.64-.85,4.43.94,8.47,4s6.8,6.19,6.16,7-4.43-.94-8.46-4-6.8-6.2-6.17-7Z"/>
    <path class="cls-5" d="M104.92,60.55c.53.91-2.6,3.7-7,6.23s-8.36,3.84-8.89,2.92,2.6-3.7,7-6.23,8.36-3.84,8.89-2.92Z"/>
    <path class="cls-6" d="M84.68,123.61a6.26,6.26,0,1,1-6.26,6.26,6.25,6.25,0,0,1,6.26-6.26Z"/>
    <path class="cls-6" d="M122.67,41.37a6.25,6.25,0,1,1-6.25,6.25,6.25,6.25,0,0,1,6.25-6.25Z"/>
    <path class="cls-6" d="M68.34,124.85a6.25,6.25,0,1,1-6.25,6.25,6.25,6.25,0,0,1,6.25-6.25Z"/>
    <path class="cls-7" d="M29.34,53.3a6.26,6.26,0,1,1-6.25,6.25,6.25,6.25,0,0,1,6.25-6.25Z"/>
  </g>
</svg>
