<svg id="图层_1" data-name="图层 1" xmlns="http://www.w3.org/2000/svg" viewBox="0 0 200 160">
  <defs>
    <style>
      .cls-1, .cls-2 {
        fill: #f5d7a6;
      }

      .cls-1, .cls-3, .cls-4, .cls-6 {
        fill-rule: evenodd;
      }

      .cls-3 {
        fill: #fed361;
      }

      .cls-4 {
        fill: #755f21;
      }

      .cls-5 {
        fill: #fbe7b1;
      }

      .cls-6 {
        fill: #bc9118;
      }
    </style>
  </defs>
  <title>mcookie人物V2</title>
  <g>
    <polygon class="cls-1" points="9.03 39.47 10.01 39.88 10.92 40.49 10.92 40.5 10.99 40.56 11.06 40.61 11.13 40.67 11.2 40.73 11.27 40.79 11.34 40.84 11.4 40.9 11.47 40.96 11.54 41.02 11.61 41.07 11.68 41.13 11.75 41.19 11.82 41.24 11.89 41.3 11.96 41.36 12.03 41.41 12.1 41.47 12.16 41.53 12.23 41.58 12.3 41.64 12.37 41.7 12.44 41.75 12.51 41.81 12.58 41.86 12.65 41.92 12.72 41.97 12.79 42.03 12.86 42.08 12.93 42.14 13 42.19 13.07 42.25 13.14 42.3 13.21 42.36 13.28 42.41 13.35 42.47 13.42 42.52 13.49 42.57 13.56 42.63 13.63 42.68 13.71 42.74 13.77 42.78 13.78 42.79 13.85 42.84 13.92 42.9 13.99 42.95 14.06 43.01 14.13 43.06 14.2 43.11 14.27 43.17 14.34 43.22 14.41 43.27 14.48 43.33 14.55 43.38 14.62 43.43 14.69 43.48 14.76 43.54 14.83 43.59 14.9 43.64 14.98 43.69 15.05 43.75 15.12 43.8 15.19 43.85 15.26 43.9 15.33 43.95 15.4 44.01 15.47 44.06 15.54 44.11 15.62 44.16 15.69 44.21 15.76 44.26 15.83 44.31 15.9 44.36 15.97 44.41 16.05 44.47 16.12 44.52 16.19 44.57 16.26 44.62 16.33 44.67 16.4 44.72 16.48 44.77 16.55 44.82 16.62 44.87 16.69 44.92 16.76 44.97 16.83 45.02 16.91 45.07 16.98 45.12 17.05 45.16 17.12 45.21 17.2 45.26 17.27 45.31 17.34 45.36 17.41 45.41 17.48 45.46 17.56 45.51 17.63 45.56 17.7 45.6 17.77 45.65 17.84 45.7 17.92 45.75 17.99 45.8 18.06 45.84 18.14 45.89 18.21 45.94 18.28 45.99 18.35 46.03 18.43 46.08 18.5 46.13 18.57 46.18 18.64 46.22 18.72 46.27 18.79 46.32 18.86 46.36 18.94 46.41 19.01 46.46 19.08 46.5 19.16 46.55 19.23 46.6 19.3 46.64 19.37 46.69 19.45 46.73 19.52 46.78 19.59 46.83 19.67 46.87 19.74 46.92 19.81 46.96 19.89 47.01 19.96 47.05 20.03 47.1 20.11 47.14 20.18 47.19 20.25 47.23 20.33 47.28 20.4 47.32 20.47 47.37 20.55 47.41 20.62 47.46 20.69 47.5 20.77 47.54 20.84 47.59 20.91 47.63 20.97 47.66 20.99 47.68 21.06 47.72 21.13 47.77 21.21 47.81 21.28 47.85 21.35 47.9 21.43 47.94 21.5 47.99 21.57 48.03 21.65 48.07 21.72 48.12 21.79 48.16 21.87 48.2 21.94 48.25 22.01 48.29 22.09 48.34 22.16 48.38 22.23 48.42 22.31 48.47 22.38 48.51 22.46 48.55 22.53 48.59 22.6 48.63 22.68 48.68 22.75 48.72 22.82 48.76 22.9 48.8 22.97 48.85 23.05 48.89 23.12 48.93 23.19 48.97 23.27 49.02 23.34 49.06 23.41 49.1 23.49 49.14 23.56 49.18 23.64 49.22 23.71 49.26 23.78 49.3 23.86 49.34 23.93 49.39 24.01 49.43 24.08 49.47 24.15 49.51 24.23 49.55 24.3 49.59 24.45 49.67 24.6 49.75 24.75 49.83 24.89 49.91 25.04 49.99 25.19 50.07 25.34 50.15 25.49 50.22 25.64 50.3 25.79 50.38 25.93 50.45 26.08 50.53 26.23 50.61 26.38 50.68 26.53 50.76 26.68 50.83 26.83 50.91 26.98 50.98 27.12 51.05 27.27 51.13 27.42 51.2 27.57 51.27 27.72 51.35 27.87 51.42 28.02 51.49 28.17 51.56 28.32 51.63 28.46 51.7 28.61 51.77 28.76 51.84 28.91 51.91 29.06 51.98 29.21 52.05 29.36 52.12 29.51 52.19 29.66 52.26 29.81 52.32 29.95 52.39 30.1 52.46 30.16 52.48 30.25 52.53 30.4 52.59 30.55 52.66 30.7 52.73 30.84 52.8 30.99 52.87 31.14 52.93 31.29 53 31.43 53.06 31.58 53.13 31.73 53.2 31.88 53.26 32.03 53.33 32.17 53.39 32.32 53.45 32.47 53.52 32.62 53.58 32.76 53.65 32.91 53.71 33.06 53.77 33.21 53.83 33.35 53.89 33.5 53.96 33.65 54.02 33.8 54.08 33.94 54.14 34.09 54.2 34.24 54.26 34.38 54.32 34.5 54.36 34.53 54.38 34.68 54.44 34.82 54.5 34.97 54.56 35.11 54.62 35.26 54.68 35.4 54.74 35.55 54.8 35.69 54.86 35.84 54.92 35.98 54.98 36.13 55.04 36.27 55.1 36.42 55.16 36.56 55.22 36.71 55.27 36.85 55.33 37 55.39 37.14 55.44 37.29 55.5 37.43 55.55 37.58 55.61 37.72 55.66 37.86 55.72 38.01 55.77 38.05 55.79 38.15 55.83 38.29 55.89 38.43 55.95 38.58 56.01 38.72 56.07 38.86 56.13 39 56.19 39.14 56.24 39.28 56.3 39.42 56.36 39.56 56.42 39.7 56.47 39.85 56.53 39.99 56.59 40.13 56.64 40.27 56.7 40.41 56.75 40.55 56.8 40.69 56.86 40.83 56.91 40.97 56.97 41.11 57.02 41.25 57.07 41.39 57.13 41.53 57.18 41.67 57.23 41.81 57.28 41.81 57.28 41.94 57.34 42.08 57.39 42.22 57.44 42.36 57.5 42.49 57.55 42.63 57.61 42.77 57.66 42.91 57.71 43.04 57.77 43.18 57.82 43.32 57.87 43.45 57.92 43.59 57.97 43.73 58.02 43.86 58.07 44 58.12 44.13 58.17 44.27 58.22 44.4 58.27 44.54 58.32 44.67 58.37 44.81 58.41 44.94 58.46 45.08 58.51 45.21 58.55 45.35 58.6 45.48 58.65 45.62 58.69 45.75 58.74 45.85 58.77 45.88 58.78 46.01 58.83 46.15 58.88 46.28 58.92 46.41 58.97 46.54 59.02 46.67 59.06 46.81 59.1 46.94 59.15 47.07 59.19 47.2 59.24 47.33 59.28 47.46 59.32 47.59 59.37 47.72 59.41 47.85 59.45 47.98 59.49 48.11 59.53 48.24 59.58 48.37 59.62 48.5 59.66 48.63 59.7 48.76 59.73 48.88 59.77 49.01 59.81 49.14 59.85 49.27 59.89 49.39 59.93 49.52 59.97 49.65 60 49.77 60.04 49.9 60.08 50.02 60.11 50.15 60.15 50.27 60.18 50.4 60.22 50.52 60.25 50.65 60.29 50.77 60.32 50.9 60.35 51.02 60.39 51.14 60.42 51.27 60.45 51.39 60.49 51.51 60.52 51.63 60.55 51.76 60.58 51.88 60.61 52 60.64 52.12 60.67 52.24 60.7 52.36 60.73 52.48 60.76 52.6 60.79 52.72 60.82 52.84 60.85 52.96 60.88 53.08 60.91 53.19 60.93 53.31 60.96 53.43 60.99 53.55 61.02 53.66 61.04 53.78 61.07 53.9 61.09 54.01 61.12 54.13 61.15 54.22 61.17 54.24 61.17 54.36 61.2 54.47 61.22 54.58 61.24 54.7 61.27 54.81 61.29 54.92 61.31 55.04 61.34 55.15 61.36 55.26 61.38 55.37 61.41 55.48 61.43 55.59 61.45 55.7 61.47 55.81 61.49 55.92 61.51 56.03 61.53 56.14 61.55 56.25 61.57 56.36 61.59 56.46 61.61 56.57 61.63 56.68 61.65 56.78 61.67 56.89 61.69 56.99 61.71 57.1 61.73 57.2 61.74 57.31 61.76 57.41 61.78 57.52 61.8 57.62 61.81 57.72 61.83 57.82 61.84 57.92 61.86 58.03 61.88 58.13 61.89 58.23 61.91 58.33 61.92 58.43 61.94 58.53 61.95 58.62 61.97 58.72 61.98 58.82 62 58.92 62.01 59.01 62.02 59.11 62.04 59.2 62.05 59.3 62.07 59.49 62.09 59.68 62.12 59.86 62.14 60.05 62.16 60.23 62.19 60.41 62.21 60.59 62.23 60.76 62.25 60.94 62.27 61.11 62.29 61.28 62.31 61.44 62.33 61.61 62.34 61.77 62.36 61.84 62.37 61.93 62.38 62.09 62.39 62.25 62.4 62.41 62.41 62.56 62.43 62.71 62.44 62.86 62.45 63 62.46 63.15 62.47 63.29 62.48 63.43 62.49 63.56 62.5 63.7 62.51 63.83 62.52 63.96 62.52 64.09 62.53 64.22 62.54 64.34 62.54 64.46 62.55 64.58 62.55 64.69 62.56 64.81 62.57 64.88 62.57 64.92 62.57 65.02 62.57 65.13 62.58 65.23 62.58 65.33 62.58 65.43 62.59 65.53 62.59 65.62 62.59 65.71 62.59 65.8 62.59 65.88 62.6 65.97 62.6 66.05 62.6 66.12 62.6 66.13 62.6 66.2 62.6 66.27 62.6 66.34 62.6 66.4 62.6 66.47 62.6 66.59 62.6 66.69 62.6 66.79 62.6 66.88 62.6 66.95 62.6 67.01 62.59 67.06 62.59 67.1 62.59 67.12 62.59 67.14 62.59 67.94 62.73 68.59 63.15 69.05 63.78 69.23 64.56 69.23 64.57 69.09 65.36 68.68 66.02 68.04 66.47 67.26 66.65 67.26 66.65 67.23 66.66 67.2 66.66 67.15 66.66 67.09 66.66 67.02 66.66 66.93 66.66 66.84 66.66 66.73 66.66 66.61 66.67 66.48 66.67 66.41 66.67 66.34 66.67 66.26 66.67 66.19 66.67 66.12 66.67 66.11 66.67 66.02 66.67 65.94 66.67 65.85 66.67 65.76 66.67 65.66 66.67 65.57 66.67 65.47 66.67 65.37 66.67 65.26 66.66 65.16 66.66 65.05 66.66 64.94 66.66 64.82 66.66 64.79 66.66 64.7 66.66 64.58 66.66 64.46 66.66 64.34 66.66 64.21 66.65 64.08 66.65 63.95 66.65 63.81 66.65 63.68 66.65 63.54 66.64 63.4 66.64 63.25 66.64 63.1 66.64 62.96 66.63 62.8 66.63 62.65 66.63 62.5 66.62 62.34 66.62 62.18 66.61 62.02 66.61 61.85 66.6 61.68 66.6 61.58 66.59 61.51 66.59 61.34 66.59 61.17 66.58 60.99 66.58 60.81 66.58 60.63 66.57 60.45 66.56 60.27 66.56 60.08 66.55 59.89 66.55 59.7 66.54 59.51 66.53 59.31 66.53 59.12 66.52 58.92 66.51 58.82 66.51 58.72 66.5 58.61 66.5 58.51 66.5 58.41 66.49 58.31 66.49 58.2 66.48 58.1 66.48 57.99 66.48 57.89 66.47 57.78 66.47 57.68 66.46 57.57 66.46 57.47 66.45 57.36 66.45 57.25 66.44 57.14 66.44 57.03 66.43 56.92 66.43 56.81 66.42 56.7 66.42 56.59 66.41 56.48 66.41 56.37 66.4 56.26 66.4 56.15 66.39 56.03 66.39 55.92 66.38 55.81 66.37 55.69 66.37 55.58 66.36 55.46 66.36 55.34 66.35 55.23 66.34 55.11 66.34 54.99 66.33 54.88 66.33 54.76 66.32 54.64 66.31 54.52 66.31 54.4 66.3 54.28 66.29 54.16 66.28 54.04 66.28 53.92 66.27 53.8 66.26 53.68 66.26 53.55 66.25 53.53 66.25 53.43 66.24 53.31 66.23 53.18 66.23 53.06 66.22 52.93 66.21 52.81 66.2 52.68 66.2 52.56 66.19 52.43 66.18 52.3 66.17 52.18 66.17 52.05 66.16 51.92 66.15 51.79 66.14 51.66 66.13 51.53 66.12 51.4 66.11 51.27 66.11 51.14 66.1 51.01 66.09 50.88 66.08 50.75 66.07 50.62 66.06 50.48 66.05 50.35 66.04 50.22 66.03 50.08 66.02 49.95 66.01 49.81 66 49.68 65.99 49.54 65.98 49.41 65.97 49.27 65.96 49.13 65.95 49 65.94 48.86 65.93 48.72 65.92 48.58 65.91 48.44 65.9 48.3 65.89 48.16 65.88 48.02 65.87 47.88 65.86 47.74 65.84 47.6 65.83 47.46 65.82 47.32 65.81 47.18 65.8 47.04 65.78 46.89 65.77 46.75 65.76 46.61 65.75 46.46 65.74 46.32 65.72 46.17 65.71 46.03 65.7 45.88 65.69 45.73 65.67 45.59 65.66 45.44 65.64 45.3 65.63 45.15 65.62 45 65.61 44.85 65.59 44.7 65.58 44.55 65.56 44.41 65.55 44.37 65.55 44.26 65.53 44.11 65.52 43.96 65.5 43.81 65.48 43.66 65.46 43.51 65.45 43.36 65.43 43.2 65.41 43.05 65.39 42.9 65.37 42.75 65.36 42.59 65.34 42.44 65.32 42.29 65.3 42.13 65.28 41.98 65.26 41.83 65.24 41.67 65.22 41.52 65.2 41.36 65.18 41.21 65.16 41.05 65.14 40.89 65.12 40.74 65.1 40.58 65.08 40.42 65.06 40.27 65.03 40.11 65.01 39.95 64.99 39.79 64.97 39.79 64.97 39.63 64.94 39.48 64.92 39.32 64.89 39.16 64.86 39 64.83 38.84 64.81 38.68 64.78 38.52 64.75 38.36 64.72 38.2 64.69 38.04 64.66 37.88 64.63 37.72 64.6 37.56 64.57 37.4 64.54 37.24 64.51 37.07 64.48 36.91 64.45 36.75 64.42 36.59 64.39 36.42 64.36 36.26 64.33 36.1 64.3 35.93 64.26 35.77 64.23 35.6 64.2 35.49 64.17 35.44 64.16 35.28 64.12 35.11 64.08 34.95 64.04 34.79 64 34.62 63.96 34.46 63.92 34.3 63.88 34.13 63.84 33.97 63.79 33.8 63.75 33.64 63.71 33.47 63.66 33.31 63.62 33.14 63.58 32.98 63.53 32.81 63.49 32.64 63.45 32.48 63.4 32.31 63.35 32.14 63.31 31.98 63.26 31.81 63.22 31.64 63.17 31.48 63.12 31.44 63.11 31.31 63.07 31.14 63.02 30.97 62.97 30.81 62.92 30.64 62.87 30.47 62.81 30.3 62.76 30.14 62.71 29.97 62.65 29.8 62.6 29.63 62.55 29.47 62.49 29.3 62.44 29.13 62.38 28.96 62.33 28.79 62.27 28.62 62.21 28.45 62.16 28.29 62.1 28.12 62.04 27.95 61.98 27.78 61.92 27.61 61.87 27.44 61.81 27.27 61.75 27.1 61.69 26.93 61.63 26.76 61.57 26.59 61.51 26.48 61.47 26.42 61.44 26.25 61.38 26.08 61.31 25.91 61.25 25.74 61.18 25.57 61.12 25.4 61.05 25.23 60.99 25.06 60.92 24.89 60.85 24.72 60.78 24.55 60.72 24.38 60.65 24.21 60.58 24.04 60.51 23.86 60.44 23.69 60.37 23.52 60.3 23.35 60.23 23.18 60.16 23.01 60.08 22.84 60.01 22.67 59.94 22.5 59.87 22.32 59.79 22.15 59.72 21.98 59.64 21.81 59.57 21.64 59.49 21.47 59.42 21.3 59.34 21.13 59.27 20.95 59.19 20.78 59.11 20.61 59.03 20.44 58.95 20.27 58.88 20.09 58.8 19.92 58.72 19.75 58.64 19.66 58.6 19.58 58.56 19.49 58.52 19.41 58.48 19.32 58.44 19.23 58.39 19.15 58.35 19.06 58.31 18.98 58.27 18.89 58.23 18.8 58.19 18.72 58.15 18.63 58.11 18.55 58.06 18.46 58.02 18.37 57.98 18.29 57.94 18.2 57.9 18.12 57.85 18.03 57.81 17.94 57.77 17.86 57.73 17.77 57.68 17.69 57.64 17.6 57.6 17.51 57.55 17.43 57.51 17.34 57.47 17.25 57.42 17.17 57.38 17.08 57.34 17 57.29 16.91 57.25 16.82 57.21 16.74 57.16 16.65 57.12 16.57 57.07 16.48 57.03 16.39 56.98 16.31 56.94 16.22 56.9 16.14 56.85 16.05 56.81 15.96 56.76 15.88 56.72 15.86 56.7 15.79 56.67 15.71 56.62 15.62 56.58 15.54 56.53 15.45 56.48 15.37 56.44 15.28 56.39 15.19 56.34 15.11 56.3 15.02 56.25 14.94 56.2 14.85 56.15 14.77 56.11 14.68 56.06 14.6 56.01 14.51 55.96 14.43 55.91 14.34 55.87 14.26 55.82 14.17 55.77 14.08 55.72 14 55.67 13.91 55.62 13.83 55.57 13.74 55.52 13.66 55.48 13.57 55.42 13.49 55.38 13.4 55.33 13.32 55.28 13.23 55.23 13.15 55.18 13.06 55.13 12.98 55.08 12.89 55.03 12.8 54.98 12.72 54.92 12.63 54.87 12.55 54.82 12.46 54.77 12.38 54.72 12.29 54.67 12.21 54.62 12.13 54.57 12.04 54.52 11.95 54.47 11.87 54.41 11.79 54.36 11.7 54.31 11.62 54.26 11.53 54.2 11.45 54.15 11.36 54.1 11.28 54.05 11.19 53.99 11.11 53.94 11.02 53.89 10.94 53.83 10.85 53.78 10.77 53.73 10.68 53.67 10.6 53.62 10.51 53.57 10.43 53.51 10.34 53.46 10.26 53.4 10.17 53.35 10.09 53.29 10.01 53.24 9.92 53.19 9.84 53.13 9.75 53.08 9.67 53.02 9.58 52.97 9.5 52.91 9.41 52.85 9.33 52.8 9.25 52.74 9.16 52.69 9.08 52.63 8.99 52.57 8.91 52.52 8.82 52.46 8.74 52.4 8.66 52.35 8.57 52.29 8.49 52.23 8.4 52.18 8.32 52.12 8.24 52.06 8.15 52.01 8.07 51.95 7.99 51.89 7.9 51.83 7.82 51.77 7.73 51.72 7.65 51.66 7.57 51.6 7.48 51.54 7.4 51.48 7.39 51.47 7.32 51.42 7.23 51.36 7.15 51.3 7.07 51.24 6.98 51.18 6.9 51.12 6.82 51.06 6.73 51 6.65 50.94 6.57 50.88 6.49 50.82 6.4 50.76 6.32 50.7 6.24 50.64 6.15 50.58 6.07 50.52 5.99 50.45 5.91 50.39 5.82 50.33 5.74 50.27 5.66 50.21 5.57 50.14 5.49 50.08 5.41 50.02 5.33 49.96 5.25 49.89 5.16 49.83 5.08 49.77 5 49.7 4.92 49.64 4.83 49.58 4.75 49.52 4.67 49.45 4.59 49.39 4.5 49.32 4.42 49.26 4.34 49.2 4.26 49.13 4.18 49.07 4.1 49 4.02 48.94 4.02 48.94 3.23 48.17 2.63 47.29 2.23 46.31 2.03 45.29 2.02 44.24 2.23 43.2 2.63 42.2 3.25 41.27 3.25 41.27 4.04 40.48 4.94 39.88 5.92 39.48 6.95 39.27 8 39.27 9.03 39.47 9.03 39.47"/>
    <path class="cls-2" d="M120.74,142.59a4.67,4.67,0,0,1-4.67-4.67V87.84a4.67,4.67,0,1,1,9.34,0v50.08A4.67,4.67,0,0,1,120.74,142.59Zm-39,0a4.67,4.67,0,0,1-4.67-4.67V87.84a4.67,4.67,0,0,1,9.34,0v50.08A4.67,4.67,0,0,1,81.72,142.59Z"/>
    <path class="cls-3" d="M141.79,48.17a8.83,8.83,0,0,0-7.74-7.69,325.4,325.4,0,0,0-66.12,0,8.87,8.87,0,0,0-7.79,8c-2.4,22.37-4.75,44.59-3.29,66.65a8.86,8.86,0,0,0,7.36,8.21c24,3.64,51.06,3.75,73.4,0a8.84,8.84,0,0,0,7.2-7.87c2.26-22.43,0-44.86-3-67.29Z"/>
    <polygon class="cls-1" points="192.5 41.97 193.5 42.32 194.43 42.87 195.26 43.62 195.26 43.62 195.93 44.52 196.39 45.5 196.64 46.53 196.69 47.58 196.54 48.62 196.19 49.61 195.64 50.52 194.89 51.32 194.89 51.32 194.82 51.38 194.76 51.44 194.69 51.5 194.62 51.56 194.56 51.62 194.49 51.67 194.42 51.73 194.35 51.79 194.28 51.85 194.22 51.91 194.15 51.97 194.08 52.02 194.01 52.08 193.94 52.14 193.88 52.2 193.81 52.25 193.74 52.31 193.67 52.37 193.6 52.42 193.54 52.48 193.47 52.54 193.4 52.59 193.33 52.65 193.26 52.71 193.19 52.76 193.13 52.82 193.06 52.87 192.99 52.93 192.92 52.99 192.85 53.04 192.78 53.1 192.72 53.15 192.65 53.21 192.58 53.26 192.51 53.32 192.44 53.37 192.37 53.43 192.31 53.48 192.24 53.54 192.23 53.54 192.17 53.59 192.1 53.64 192.03 53.7 191.96 53.75 191.89 53.8 191.82 53.86 191.75 53.91 191.69 53.96 191.62 54.02 191.55 54.07 191.48 54.12 191.41 54.17 191.34 54.23 191.27 54.28 191.2 54.33 191.13 54.38 191.06 54.44 190.99 54.49 190.92 54.54 190.85 54.59 190.78 54.64 190.72 54.7 190.65 54.75 190.58 54.8 190.51 54.85 190.44 54.9 190.37 54.95 190.3 55 190.23 55.05 190.16 55.1 190.09 55.15 190.02 55.2 189.95 55.25 189.88 55.3 189.81 55.35 189.74 55.4 189.67 55.45 189.6 55.5 189.53 55.55 189.46 55.6 189.39 55.65 189.32 55.7 189.25 55.75 189.18 55.8 189.12 55.85 189.04 55.9 188.97 55.95 188.84 56.04 188.7 56.14 188.56 56.23 188.42 56.33 188.28 56.42 188.14 56.52 188 56.61 187.86 56.71 187.72 56.8 187.58 56.89 187.44 56.98 187.3 57.08 187.16 57.17 187.02 57.26 186.88 57.35 186.74 57.44 186.6 57.53 186.46 57.62 186.32 57.71 186.18 57.8 186.04 57.88 185.9 57.97 185.76 58.06 185.62 58.15 185.49 58.22 185.47 58.23 185.33 58.31 185.19 58.4 185.05 58.48 184.91 58.56 184.77 58.65 184.63 58.73 184.49 58.81 184.34 58.89 184.2 58.97 184.06 59.05 183.92 59.13 183.78 59.21 183.64 59.29 183.5 59.37 183.35 59.45 183.21 59.53 183.07 59.6 182.93 59.68 182.79 59.76 182.65 59.84 182.51 59.91 182.37 59.99 182.23 60.06 182.09 60.14 181.94 60.21 181.8 60.28 181.66 60.36 181.52 60.43 181.38 60.5 181.24 60.58 181.1 60.65 180.96 60.72 180.82 60.79 180.68 60.86 180.54 60.93 180.4 61 180.26 61.07 180.12 61.14 179.98 61.21 179.84 61.28 179.7 61.34 179.56 61.41 179.42 61.48 179.28 61.55 179.14 61.61 179 61.68 178.86 61.75 178.72 61.81 178.58 61.88 178.44 61.94 178.3 62.01 178.16 62.07 178.02 62.13 177.88 62.2 177.74 62.26 177.6 62.32 177.47 62.38 177.33 62.45 177.19 62.51 177.05 62.57 176.95 62.61 176.91 62.63 176.77 62.69 176.63 62.74 176.49 62.8 176.35 62.86 176.21 62.91 176.07 62.97 175.94 63.03 175.79 63.08 175.66 63.14 175.52 63.19 175.38 63.25 175.24 63.3 175.1 63.35 174.97 63.41 174.83 63.46 174.69 63.51 174.55 63.56 174.41 63.62 174.28 63.67 174.14 63.72 174 63.77 173.87 63.82 173.73 63.87 173.59 63.92 173.45 63.97 173.32 64.02 173.18 64.07 173.04 64.12 172.92 64.17 172.91 64.17 172.77 64.21 172.63 64.26 172.5 64.3 172.36 64.35 172.22 64.39 172.09 64.43 171.95 64.48 171.81 64.52 171.68 64.56 171.54 64.61 171.41 64.65 171.27 64.69 171.14 64.73 171 64.77 170.87 64.81 170.73 64.85 170.6 64.89 170.46 64.93 170.33 64.97 170.19 65.01 170.06 65.05 169.93 65.09 169.79 65.13 169.66 65.17 169.61 65.18 169.53 65.2 169.39 65.23 169.25 65.26 169.12 65.29 168.99 65.33 168.85 65.36 168.72 65.39 168.58 65.42 168.45 65.45 168.32 65.48 168.18 65.5 168.05 65.53 167.92 65.56 167.79 65.59 167.65 65.62 167.52 65.65 167.39 65.68 167.26 65.7 167.13 65.73 167 65.76 166.87 65.79 166.74 65.81 166.61 65.84 166.48 65.87 166.35 65.89 166.22 65.92 166.09 65.94 166.08 65.95 165.96 65.97 165.83 65.99 165.7 66.01 165.57 66.03 165.44 66.05 165.31 66.07 165.18 66.09 165.05 66.11 164.93 66.13 164.8 66.15 164.67 66.17 164.54 66.19 164.42 66.21 164.29 66.23 164.16 66.25 164.04 66.27 163.91 66.28 163.79 66.3 163.66 66.32 163.54 66.34 163.41 66.36 163.29 66.38 163.16 66.39 163.04 66.41 162.92 66.43 162.79 66.45 162.67 66.46 162.55 66.48 162.43 66.5 162.32 66.51 162.3 66.51 162.18 66.53 162.06 66.54 161.94 66.56 161.82 66.57 161.7 66.58 161.57 66.6 161.46 66.61 161.34 66.62 161.22 66.64 161.09 66.65 160.98 66.66 160.86 66.67 160.74 66.69 160.62 66.7 160.5 66.71 160.39 66.72 160.27 66.74 160.15 66.75 160.03 66.76 159.92 66.77 159.8 66.78 159.69 66.8 159.57 66.81 159.46 66.82 159.34 66.83 159.23 66.84 159.11 66.85 159 66.86 158.89 66.88 158.77 66.89 158.66 66.9 158.55 66.91 158.44 66.92 158.33 66.93 158.22 66.94 158.1 66.95 157.99 66.96 157.88 66.97 157.77 66.98 157.66 66.99 157.55 67 157.44 67.01 157.34 67.02 157.23 67.03 157.12 67.04 157.01 67.05 156.91 67.06 156.8 67.07 156.69 67.08 156.59 67.09 156.48 67.1 156.38 67.11 156.27 67.12 156.16 67.13 156.06 67.13 155.96 67.14 155.85 67.15 155.75 67.16 155.65 67.17 155.54 67.18 155.44 67.19 155.34 67.19 155.24 67.2 155.14 67.21 155.04 67.22 154.94 67.22 154.84 67.23 154.77 67.24 154.74 67.24 154.64 67.25 154.54 67.26 154.44 67.26 154.34 67.27 154.24 67.28 154.15 67.29 154.05 67.29 153.95 67.3 153.85 67.31 153.76 67.32 153.66 67.32 153.57 67.33 153.47 67.34 153.38 67.34 153.28 67.35 153.19 67.36 153.1 67.36 153 67.37 152.91 67.38 152.82 67.38 152.73 67.39 152.63 67.4 152.54 67.4 152.45 67.41 152.36 67.42 152.27 67.42 152.18 67.43 152.09 67.43 152 67.44 151.91 67.44 151.83 67.45 151.74 67.46 151.65 67.46 151.48 67.47 151.31 67.48 151.14 67.49 150.97 67.5 150.8 67.51 150.63 67.52 150.47 67.53 150.31 67.54 150.15 67.55 149.99 67.56 149.83 67.57 149.68 67.58 149.52 67.58 149.37 67.59 149.22 67.6 149.07 67.61 148.92 67.61 148.78 67.62 148.63 67.63 148.49 67.63 148.35 67.64 148.21 67.64 148.17 67.65 148.07 67.65 147.94 67.66 147.81 67.66 147.68 67.67 147.55 67.68 147.42 67.68 147.29 67.69 147.17 67.69 147.04 67.7 146.93 67.7 146.81 67.71 146.69 67.71 146.57 67.72 146.46 67.72 146.35 67.72 146.24 67.73 146.13 67.73 146.03 67.73 145.93 67.74 145.82 67.74 145.73 67.74 145.63 67.74 145.53 67.75 145.53 67.75 145.44 67.75 145.35 67.75 145.26 67.75 145.17 67.76 145.09 67.76 145 67.76 144.92 67.76 144.84 67.76 144.77 67.77 144.69 67.77 144.62 67.77 144.55 67.77 144.48 67.77 144.44 67.77 144.41 67.77 144.35 67.77 144.29 67.77 144.23 67.77 144.11 67.77 144.01 67.78 143.91 67.78 143.83 67.78 143.75 67.78 143.68 67.78 143.63 67.78 143.58 67.78 143.54 67.77 143.51 67.77 143.48 67.77 143.48 67.77 142.7 67.6 142.06 67.15 141.63 66.5 141.49 65.71 141.49 65.71 141.66 64.92 142.11 64.28 142.76 63.86 143.55 63.71 143.55 63.71 143.57 63.71 143.59 63.71 143.61 63.71 143.65 63.71 143.7 63.71 143.75 63.71 143.82 63.71 143.89 63.71 143.97 63.71 144.06 63.71 144.16 63.71 144.22 63.71 144.27 63.71 144.33 63.7 144.35 63.7 144.39 63.7 144.45 63.7 144.52 63.7 144.58 63.7 144.65 63.69 144.72 63.69 144.79 63.69 144.87 63.68 144.94 63.68 145.02 63.68 145.1 63.67 145.18 63.67 145.27 63.66 145.35 63.66 145.44 63.65 145.53 63.65 145.62 63.64 145.72 63.63 145.81 63.63 145.91 63.62 146.01 63.61 146.11 63.6 146.22 63.59 146.32 63.58 146.43 63.57 146.54 63.56 146.65 63.55 146.76 63.54 146.87 63.53 146.99 63.52 147.1 63.51 147.22 63.49 147.35 63.48 147.47 63.47 147.59 63.45 147.72 63.44 147.8 63.42 147.85 63.42 147.97 63.4 148.11 63.38 148.24 63.37 148.37 63.35 148.51 63.33 148.65 63.3 148.78 63.28 148.93 63.26 149.07 63.24 149.21 63.22 149.35 63.19 149.5 63.17 149.65 63.14 149.8 63.11 149.95 63.09 150.1 63.06 150.25 63.03 150.41 63 150.57 62.97 150.72 62.94 150.88 62.91 151.04 62.87 151.12 62.86 151.21 62.84 151.29 62.82 151.37 62.8 151.45 62.79 151.53 62.77 151.62 62.75 151.7 62.73 151.78 62.71 151.86 62.69 151.95 62.67 152.03 62.66 152.12 62.64 152.2 62.62 152.29 62.6 152.37 62.58 152.46 62.56 152.54 62.53 152.63 62.51 152.72 62.49 152.81 62.47 152.89 62.45 152.98 62.43 153.07 62.41 153.16 62.38 153.24 62.36 153.33 62.34 153.42 62.31 153.51 62.29 153.6 62.27 153.69 62.24 153.78 62.22 153.87 62.19 153.9 62.18 153.96 62.17 154.05 62.14 154.14 62.12 154.23 62.09 154.32 62.07 154.42 62.04 154.51 62.01 154.6 61.99 154.69 61.96 154.79 61.93 154.88 61.9 154.97 61.88 155.07 61.85 155.16 61.82 155.25 61.79 155.35 61.76 155.44 61.73 155.54 61.7 155.63 61.67 155.73 61.64 155.82 61.61 155.92 61.58 156.02 61.55 156.11 61.52 156.21 61.48 156.3 61.45 156.4 61.42 156.5 61.39 156.6 61.35 156.69 61.32 156.79 61.29 156.89 61.25 156.99 61.22 157.08 61.19 157.18 61.15 157.28 61.12 157.38 61.08 157.48 61.04 157.58 61.01 157.68 60.97 157.78 60.93 157.88 60.9 157.98 60.86 158.08 60.82 158.18 60.78 158.28 60.74 158.38 60.71 158.48 60.67 158.58 60.63 158.68 60.59 158.78 60.55 158.88 60.51 158.98 60.47 159.09 60.43 159.19 60.38 159.29 60.34 159.39 60.3 159.49 60.26 159.6 60.22 159.7 60.17 159.8 60.13 159.9 60.09 160.01 60.04 160.11 60 160.21 59.95 160.31 59.91 160.42 59.86 160.52 59.81 160.53 59.81 160.63 59.77 160.73 59.73 160.84 59.68 160.94 59.64 161.04 59.59 161.15 59.55 161.25 59.5 161.36 59.46 161.47 59.41 161.57 59.36 161.68 59.32 161.78 59.27 161.89 59.22 161.99 59.17 162.1 59.13 162.21 59.08 162.31 59.03 162.42 58.98 162.52 58.93 162.63 58.88 162.74 58.83 162.84 58.78 162.95 58.73 163.06 58.68 163.16 58.63 163.27 58.57 163.38 58.52 163.48 58.47 163.59 58.42 163.69 58.37 163.7 58.36 163.81 58.31 163.91 58.26 164.02 58.21 164.13 58.16 164.24 58.11 164.35 58.06 164.46 58.01 164.57 57.96 164.68 57.91 164.79 57.86 164.9 57.8 165 57.75 165.12 57.7 165.22 57.65 165.33 57.59 165.44 57.54 165.55 57.48 165.66 57.43 165.77 57.37 165.88 57.32 165.99 57.26 166.1 57.21 166.21 57.15 166.32 57.09 166.43 57.04 166.54 56.98 166.62 56.94 166.65 56.92 166.77 56.87 166.88 56.82 166.99 56.77 167.1 56.72 167.22 56.66 167.33 56.61 167.44 56.56 167.56 56.5 167.67 56.45 167.78 56.4 167.9 56.34 168.01 56.29 168.12 56.23 168.24 56.17 168.35 56.12 168.46 56.06 168.58 56.01 168.69 55.95 168.8 55.89 168.92 55.84 169.03 55.78 169.14 55.72 169.26 55.66 169.37 55.6 169.38 55.6 169.49 55.55 169.6 55.49 169.72 55.44 169.83 55.38 169.95 55.32 170.06 55.27 170.18 55.21 170.29 55.15 170.41 55.09 170.52 55.04 170.64 54.98 170.75 54.92 170.87 54.86 170.99 54.8 171.1 54.74 171.22 54.68 171.33 54.62 171.45 54.56 171.56 54.5 171.68 54.44 171.8 54.38 171.91 54.31 172.03 54.25 172.14 54.19 172.26 54.13 172.38 54.06 172.49 54 172.61 53.94 172.72 53.87 172.75 53.85 172.84 53.81 172.96 53.75 173.07 53.69 173.19 53.62 173.31 53.56 173.43 53.5 173.54 53.43 173.66 53.37 173.78 53.3 173.89 53.24 174.01 53.17 174.13 53.11 174.24 53.04 174.36 52.98 174.48 52.91 174.6 52.85 174.71 52.78 174.83 52.71 174.95 52.64 175.06 52.58 175.18 52.51 175.3 52.44 175.41 52.37 175.53 52.3 175.65 52.23 175.77 52.16 175.88 52.09 176 52.02 176.12 51.95 176.23 51.88 176.35 51.81 176.47 51.74 176.58 51.66 176.7 51.59 176.82 51.52 176.93 51.45 177.05 51.37 177.17 51.3 177.28 51.23 177.4 51.15 177.52 51.08 177.63 51 177.75 50.93 177.87 50.85 177.98 50.77 178.1 50.7 178.22 50.62 178.33 50.55 178.45 50.47 178.56 50.39 178.68 50.31 178.79 50.23 178.91 50.16 179.03 50.08 179.14 50 179.26 49.92 179.37 49.84 179.49 49.76 179.6 49.67 179.72 49.59 179.84 49.51 179.85 49.5 179.95 49.43 180.07 49.35 180.19 49.27 180.3 49.19 180.42 49.11 180.53 49.03 180.65 48.94 180.76 48.86 180.88 48.78 181 48.7 181.11 48.61 181.23 48.53 181.34 48.44 181.46 48.36 181.57 48.27 181.69 48.19 181.81 48.1 181.92 48.02 182.04 47.93 182.15 47.84 182.27 47.76 182.38 47.67 182.5 47.58 182.61 47.49 182.73 47.4 182.78 47.36 182.84 47.31 182.9 47.27 182.95 47.22 183.01 47.18 183.07 47.13 183.13 47.09 183.18 47.04 183.24 47 183.3 46.95 183.35 46.91 183.41 46.86 183.47 46.82 183.52 46.77 183.58 46.73 183.64 46.68 183.69 46.63 183.75 46.59 183.81 46.54 183.87 46.49 183.92 46.45 183.98 46.4 184.03 46.36 184.09 46.31 184.15 46.26 184.2 46.22 184.26 46.17 184.32 46.12 184.37 46.08 184.43 46.03 184.49 45.98 184.54 45.93 184.6 45.89 184.66 45.84 184.71 45.79 184.77 45.74 184.82 45.7 184.88 45.65 184.94 45.6 184.99 45.55 185.05 45.5 185.11 45.45 185.16 45.41 185.22 45.36 185.27 45.31 185.33 45.26 185.38 45.22 185.39 45.21 185.44 45.16 185.5 45.12 185.56 45.07 185.61 45.02 185.67 44.97 185.72 44.92 185.78 44.87 185.84 44.82 185.89 44.77 185.95 44.72 186 44.67 186.06 44.62 186.12 44.57 186.17 44.52 186.23 44.48 186.28 44.42 186.34 44.38 186.4 44.33 186.45 44.27 186.51 44.22 186.56 44.17 186.62 44.12 186.68 44.07 186.73 44.02 186.79 43.97 186.84 43.92 186.9 43.87 186.95 43.82 187.01 43.77 187.06 43.72 187.12 43.66 187.17 43.61 187.23 43.56 187.28 43.51 187.34 43.46 187.4 43.41 187.45 43.35 187.5 43.3 187.56 43.25 188.44 42.58 189.4 42.12 190.41 41.86 191.46 41.81 192.5 41.97 192.5 41.97"/>
    <g>
      <path class="cls-4" d="M132.73,61.82a12.37,12.37,0,0,0-12.37-12.37H82.1a12.38,12.38,0,0,0,0,24.75h38.26a12.38,12.38,0,0,0,12.37-12.38Z"/>
      <path class="cls-5" d="M120.36,76H82.1a14.16,14.16,0,1,1,0-28.32h38.26a14.16,14.16,0,1,1,0,28.32ZM82.1,51.23a10.59,10.59,0,1,0,0,21.18h38.26a10.59,10.59,0,0,0,0-21.18Z"/>
    </g>
    <path class="cls-6" d="M81.72,57.76a4.06,4.06,0,1,1-3.94,4.06,4,4,0,0,1,3.94-4.06Z"/>
    <path class="cls-6" d="M120.74,57.76a4.06,4.06,0,1,1-3.94,4.06,4,4,0,0,1,3.94-4.06Z"/>
  </g>
</svg>
