<?xml version="1.0" encoding="utf-8"?>
<!-- Generator: Adobe Illustrator 21.1.0, SVG Export Plug-In . SVG Version: 6.00 Build 0)  -->
<svg version="1.1" id="corey" xmlns="http://www.w3.org/2000/svg" xmlns:xlink="http://www.w3.org/1999/xlink" x="0px" y="0px" width="107.3px" height="101.1px"
	 viewBox="0 0 107.3 101.1" style="enable-background:new 0 0 107.3 101.1;" xml:space="preserve">
<style type="text/css">
	.st0{fill:none;stroke:#F4A8A8;stroke-width:5.1842;stroke-linecap:round;stroke-linejoin:round;}
	.st1{fill:#F0E6E9;}
	.st2{fill:none;stroke:#F4A8A8;stroke-width:5.2169;stroke-linecap:round;stroke-linejoin:round;}
	.st3{fill:#F6A7A7;}
	.st4{clip-path:url(#SVGID_2_);}
	.st5{fill:none;stroke:#EA6262;stroke-width:1.5618;stroke-linecap:round;stroke-linejoin:round;}
	.st6{fill:#EA6262;}
	.st7{fill:#DF5252;}
	.st8{fill:#F36161;}
	.st9{fill:#FFFCFD;}
	.st10{fill:#FFE6E6;}
	.st11{fill:#726161;}
</style>
<g>
	<path class="st0" d="M67.4,52.9c0,0,5.6,23,34.4,28"/>
	<path class="st1" d="M55.7,3.4c17.2,0,31.1,13.9,31.1,31.1S72.9,65.5,55.7,65.5S24.7,51.6,24.7,34.5l0,0
		C24.7,17.3,38.6,3.4,55.7,3.4z"/>
	<path class="st2" d="M63.9,76.6c0,0-7.5,17.2-22.4,18"/>
	<path class="st2" d="M48,78c0,0,25.8,7.6,29,18.7"/>
	<path class="st3" d="M55.7,9.7c13.7,0,24.8,11.1,24.8,24.7c0,13.7-11.1,24.8-24.7,24.8C42.1,59.2,31,48.1,31,34.5c0,0,0,0,0,0
		C31,20.8,42.1,9.7,55.7,9.7z"/>
	<g>
		<defs>
			<path id="SVGID_1_" d="M55.7,9.7c13.7,0,24.8,11.1,24.8,24.7c0,13.7-11.1,24.8-24.7,24.8C42.1,59.2,31,48.1,31,34.5c0,0,0,0,0,0
				C31,20.8,42.1,9.7,55.7,9.7z"/>
		</defs>
		<clipPath id="SVGID_2_">
			<use xlink:href="#SVGID_1_"  style="overflow:visible;"/>
		</clipPath>
		<g class="st4">
			<path class="st5" d="M70,23.9v-5.2l2.3-2.4 M63.7,16.3l-4.2,4.1v8.7 M61.6,12.4l-5.4,5.5v10.6 M34,22.1h9.5l3.5,3.6 M53.1,28.6
				l-0.2-6.4l-5.8-5.2"/>
			<path class="st6" d="M61.6,10.7c0.9,0,1.7,0.7,1.7,1.6c0,0.9-0.7,1.7-1.6,1.7c-0.9,0-1.7-0.7-1.7-1.6c0,0,0,0,0,0
				C60,11.5,60.7,10.8,61.6,10.7z"/>
			<path class="st6" d="M64.3,14.2c0.9,0,1.7,0.7,1.7,1.6c0,0.9-0.7,1.7-1.6,1.7c-0.9,0-1.7-0.7-1.7-1.6c0,0,0,0,0,0
				C62.7,14.9,63.4,14.2,64.3,14.2z"/>
			<path class="st6" d="M70,23c0.9,0,1.7,0.7,1.7,1.6c0,0.9-0.7,1.7-1.6,1.7c-0.9,0-1.7-0.7-1.7-1.6c0,0,0,0,0,0
				C68.4,23.7,69.1,23,70,23z"/>
			<path class="st6" d="M46.6,14.8c0.9,0,1.7,0.7,1.7,1.6c0,0.9-0.7,1.7-1.6,1.7c-0.9,0-1.7-0.7-1.7-1.6c0,0,0,0,0,0
				C45.1,15.5,45.8,14.8,46.6,14.8z"/>
			<path class="st6" d="M47.2,24.3c0.9,0,1.7,0.7,1.7,1.6c0,0.9-0.7,1.7-1.6,1.7c-0.9,0-1.7-0.7-1.7-1.6c0,0,0,0,0,0
				C45.6,25,46.3,24.3,47.2,24.3z"/>
		</g>
	</g>
	<path class="st7" d="M93.5,38.7c-0.7-4.9-4.6-8.6-9.5-8.9c-18.7-1.3-37.4-1.3-56,0C22.9,30,18.8,34,18.3,39
		c-1.2,12-1.2,24.1,0,36.1c0.5,4.9,4.3,8.7,9.2,9.3c18.9,2.1,38,2.1,56.9,0c4.7-0.5,8.4-4.2,9.1-8.9C95.2,63.3,95.2,50.9,93.5,38.7z
		"/>
	<path class="st8" d="M92.7,40c-0.5-4.5-3.6-8-7.5-8.3c-14.6-1.2-29.3-1.2-44,0c-4,0.3-7.2,4-7.5,8.7c-0.9,11.2-0.9,22.4,0,33.5
		c0.4,4.5,3.4,8.1,7.2,8.6c14.8,2,29.8,2,44.6,0c3.7-0.5,6.6-3.9,7.1-8.2C94,62.9,94,51.4,92.7,40L92.7,40z"/>
	<path class="st2" d="M25.3,50.2c0,0-13,12.3-19.8,29.8"/>
	<path class="st9" d="M41.3,9.7c2.2,0,3.9,1.8,3.9,3.9s-1.8,3.9-3.9,3.9c-2.2,0-3.9-1.8-3.9-3.9S39.1,9.7,41.3,9.7L41.3,9.7z"/>
	<path class="st3" d="M64.6,37.5c0.8,0,1.6,0,2.3,0.1c1.9,0.1,3.8,0.3,5.7,0.6c1.9,0.3,3.8,0.7,5.7,1.3c1.1,0.3,2.3,0.7,3.4,1.2
		c0.8,0.3,1.6,0.7,2.5,1.1c0.6,0.3,1.2,0.6,1.8,1c0.5,0.3,0.9,0.6,1.3,0.9c0.3,0.2,0.6,0.5,0.9,0.7c0.3,0.2,0.5,0.4,0.7,0.6
		c1.2,1,2.2,2.2,3.1,3.5c0.1,0.2,0.2,0.4,0.3,0.6s0.2,0.4,0.3,0.6c0.1,0.3,0.3,0.6,0.4,0.9c0.1,0.4,0.3,0.8,0.4,1.2
		c0.3,1.4,0.3,2.9,0,4.3c-0.1,0.6-0.3,1.1-0.5,1.6c-0.2,0.6-0.5,1.1-0.8,1.6c-0.3,0.6-0.7,1.1-1.2,1.6c-0.6,0.7-1.2,1.4-1.9,2
		c-1.1,0.9-2.2,1.7-3.5,2.5c-0.8,0.5-1.7,0.9-2.6,1.3c-0.7,0.3-1.4,0.6-2.2,0.9c-1.1,0.4-2.2,0.8-3.4,1.1c-1.2,0.3-2.4,0.6-3.6,0.8
		c-1.5,0.3-2.9,0.5-4.4,0.6c-1.6,0.2-3.3,0.2-5,0.2c-1.6,0-3.1-0.1-4.7-0.2c-1.5-0.1-3.1-0.3-4.6-0.6c-1.2-0.2-2.5-0.5-3.7-0.8
		c-1.2-0.3-2.4-0.7-3.5-1.1c-0.9-0.3-1.7-0.7-2.6-1.1c-0.7-0.3-1.5-0.7-2.2-1.1c-1.2-0.7-2.4-1.5-3.5-2.5l-0.5-0.4
		c-1-0.9-1.9-2-2.6-3.2c-0.3-0.5-0.5-0.9-0.7-1.4c-0.3-0.6-0.5-1.2-0.6-1.9c-0.3-1.4-0.3-2.9,0-4.3c0.1-0.4,0.2-0.8,0.4-1.2
		c0.1-0.3,0.2-0.6,0.4-0.8c0.1-0.3,0.2-0.5,0.3-0.6c0.1-0.2,0.2-0.4,0.3-0.6c0.7-1.1,1.5-2.1,2.5-3l0.6-0.5c0.2-0.2,0.5-0.4,0.7-0.6
		c0.3-0.2,0.6-0.4,1-0.7c0.4-0.3,0.9-0.6,1.3-0.9c0.6-0.4,1.2-0.7,1.8-1c0.8-0.4,1.6-0.8,2.5-1.1c1.1-0.4,2.2-0.8,3.4-1.2
		c1.7-0.5,3.5-0.9,5.2-1.2c2.1-0.3,4.1-0.6,6.2-0.7c0.7,0,1.4-0.1,2.2-0.1L64.6,37.5z"/>
	<path class="st10" d="M67.6,40.8c13.7,0,24.8,5.9,24.8,13.1S81.3,67,67.6,67s-24.8-5.9-24.8-13.1S53.9,40.8,67.6,40.8z"/>
	<path class="st11" d="M62.3,52c0-0.7-0.5-1.2-1.2-1.2c0,0,0,0,0,0h-3.9c-0.7,0-1.2,0.5-1.2,1.2v3.9c0,0.7,0.5,1.2,1.2,1.2h3.9
		c0.7,0,1.2-0.5,1.2-1.2V52z"/>
	<path class="st11" d="M86.8,52c0-0.7-0.5-1.2-1.2-1.2c0,0,0,0,0,0h-3.9c-0.7,0-1.2,0.5-1.2,1.2v3.9c0,0.7,0.5,1.2,1.2,1.2
		c0,0,0,0,0,0h3.9c0.7,0,1.2-0.5,1.2-1.2V52z"/>
</g>
</svg>
