<svg id="图层_1" data-name="图层 1" xmlns="http://www.w3.org/2000/svg" viewBox="0 0 160 160">
  <defs>
    <style>
      .cls-1, .cls-2 {
        fill: #f4d7a8;
      }

      .cls-1, .cls-3, .cls-4, .cls-6 {
        fill-rule: evenodd;
      }

      .cls-3 {
        fill: #fbd362;
      }

      .cls-4 {
        fill: #755f21;
      }

      .cls-5 {
        fill: #fbe7b1;
      }

      .cls-6 {
        fill: #bc9118;
      }
    </style>
  </defs>
  <title>mcookie人物V2</title>
  <g>
    <polygon class="cls-1" points="45.74 53.85 46.18 54.18 46.55 54.6 46.55 54.61 46.83 55.09 47.01 55.62 47.04 56.7 46.66 57.71 46.33 58.15 45.91 58.52 45.91 58.52 45.89 58.54 45.87 58.55 45.84 58.57 45.8 58.6 45.74 58.65 45.71 58.67 45.67 58.7 45.64 58.73 45.6 58.76 45.56 58.79 45.51 58.82 45.46 58.86 45.41 58.9 45.36 58.94 45.3 58.98 45.25 59.03 45.19 59.08 45.12 59.13 45.06 59.18 44.99 59.24 44.92 59.29 44.89 59.32 44.85 59.35 44.77 59.42 44.7 59.48 44.62 59.55 44.54 59.62 44.46 59.69 44.37 59.76 44.28 59.84 44.19 59.92 44.1 60 44.01 60.08 43.91 60.17 43.82 60.25 43.72 60.34 43.65 60.4 43.62 60.44 43.51 60.53 43.46 60.58 43.41 60.63 43.36 60.68 43.3 60.73 43.25 60.78 43.2 60.83 43.14 60.88 43.09 60.94 43.03 60.99 42.97 61.04 42.92 61.1 42.86 61.15 42.8 61.21 42.75 61.26 42.69 61.32 42.63 61.38 42.57 61.44 42.51 61.49 42.45 61.55 42.39 61.61 42.33 61.67 42.27 61.73 42.21 61.8 42.15 61.86 42.09 61.92 42.02 61.98 41.96 62.05 41.9 62.11 41.84 62.18 41.77 62.24 41.71 62.31 41.64 62.38 41.58 62.45 41.51 62.51 41.45 62.58 41.38 62.65 41.32 62.72 41.25 62.79 41.19 62.86 41.12 62.93 41.05 63.01 40.98 63.08 40.91 63.15 40.85 63.23 40.79 63.29 40.78 63.3 40.71 63.38 40.64 63.45 40.57 63.53 40.51 63.61 40.44 63.69 40.37 63.77 40.3 63.85 40.23 63.93 40.16 64.01 40.09 64.09 40.02 64.17 39.95 64.26 39.88 64.34 39.8 64.42 39.73 64.51 39.66 64.59 39.59 64.68 39.52 64.77 39.45 64.85 39.37 64.94 39.3 65.03 39.23 65.12 39.16 65.21 39.08 65.3 39.01 65.39 38.94 65.48 38.86 65.57 38.79 65.67 38.71 65.76 38.64 65.85 38.57 65.95 38.49 66.04 38.42 66.14 38.34 66.24 38.27 66.33 38.19 66.43 38.12 66.53 38.04 66.63 37.97 66.73 37.89 66.83 37.82 66.93 37.74 67.03 37.67 67.13 37.59 67.24 37.51 67.34 37.44 67.44 37.36 67.55 37.29 67.66 37.21 67.76 37.13 67.87 37.06 67.97 36.98 68.08 36.91 68.19 36.83 68.3 36.75 68.41 36.68 68.52 36.6 68.63 36.52 68.74 36.45 68.86 36.37 68.97 36.29 69.08 36.22 69.2 36.14 69.31 36.06 69.43 35.99 69.54 35.91 69.66 35.83 69.78 35.76 69.9 35.68 70.01 35.6 70.13 35.53 70.25 35.45 70.37 35.38 70.5 35.3 70.62 35.22 70.74 35.15 70.86 35.07 70.99 34.99 71.11 34.92 71.24 34.84 71.36 34.77 71.49 34.72 71.57 34.69 71.62 34.62 71.74 34.54 71.87 34.46 72 34.39 72.13 34.31 72.26 34.24 72.39 34.16 72.52 34.09 72.66 34.01 72.79 33.94 72.92 33.86 73.06 33.79 73.19 33.72 73.33 33.64 73.46 33.57 73.6 33.49 73.73 33.42 73.87 33.35 74.01 33.27 74.15 33.2 74.29 33.13 74.43 33.05 74.57 32.98 74.71 32.91 74.86 32.84 75 32.77 75.14 32.69 75.29 32.62 75.43 32.55 75.58 32.48 75.72 32.41 75.87 32.34 76.02 32.27 76.16 32.2 76.31 32.13 76.46 32.06 76.61 31.99 76.76 31.92 76.91 31.85 77.06 31.78 77.22 31.71 77.37 31.64 77.52 31.58 77.68 31.51 77.83 31.44 77.99 31.37 78.14 31.31 78.3 31.24 78.46 31.18 78.61 31.11 78.77 31.04 78.93 30.98 79.09 30.91 79.25 30.85 79.41 30.78 79.58 30.72 79.74 30.66 79.9 30.59 80.06 30.53 80.23 30.47 80.39 30.41 80.56 30.34 80.72 30.28 80.89 30.22 81.06 30.16 81.22 30.1 81.39 30.07 81.48 30.04 81.56 30.01 81.64 29.98 81.73 29.95 81.81 29.92 81.9 29.89 81.98 29.86 82.07 29.86 82.08 29.83 82.16 29.8 82.24 29.77 82.33 29.74 82.41 29.71 82.5 29.68 82.58 29.65 82.67 29.62 82.75 29.59 82.84 29.56 82.92 29.53 83.01 29.5 83.1 29.47 83.18 29.44 83.27 29.41 83.36 29.38 83.44 29.35 83.53 29.32 83.62 29.29 83.7 29.26 83.79 29.23 83.88 29.2 83.97 29.18 84.06 29.15 84.14 29.12 84.23 29.09 84.32 29.06 84.41 29.03 84.5 29 84.59 28.98 84.67 28.95 84.76 28.92 84.85 28.89 84.94 28.87 85.03 28.84 85.12 28.81 85.21 28.78 85.3 28.76 85.39 28.73 85.48 28.7 85.57 28.68 85.66 28.65 85.75 28.62 85.84 28.59 85.94 28.57 86.03 28.54 86.12 28.52 86.21 28.49 86.3 28.46 86.39 28.44 86.48 28.41 86.58 28.39 86.67 28.36 86.76 28.34 86.85 28.31 86.95 28.29 87.04 28.26 87.13 28.23 87.22 28.21 87.32 28.18 87.41 28.16 87.5 28.16 87.52 28.13 87.6 28.11 87.69 28.08 87.78 28.05 87.88 28.03 87.97 28 88.06 27.97 88.15 27.95 88.25 27.92 88.34 27.89 88.44 27.87 88.53 27.84 88.62 27.81 88.72 27.79 88.81 27.76 88.91 27.74 89 27.71 89.09 27.68 89.19 27.66 89.28 27.63 89.38 27.61 89.47 27.58 89.57 27.56 89.67 27.53 89.76 27.51 89.86 27.48 89.95 27.46 90.05 27.43 90.14 27.41 90.24 27.39 90.34 27.36 90.43 27.34 90.53 27.31 90.63 27.29 90.72 27.27 90.82 27.24 90.92 27.22 91.02 27.2 91.11 27.17 91.21 27.15 91.31 27.13 91.41 27.11 91.51 27.08 91.6 27.06 91.7 27.04 91.8 27.02 91.9 26.99 92 26.97 92.1 26.95 92.2 26.93 92.3 26.91 92.4 26.88 92.5 26.86 92.59 26.84 92.69 26.84 92.7 26.82 92.79 26.79 92.89 26.77 92.99 26.74 93.09 26.71 93.19 26.69 93.29 26.66 93.39 26.64 93.49 26.62 93.59 26.59 93.69 26.57 93.79 26.54 93.89 26.52 93.99 26.5 94.09 26.47 94.19 26.45 94.29 26.42 94.39 26.4 94.49 26.38 94.59 26.35 94.69 26.33 94.8 26.31 94.9 26.28 95 26.26 95.1 26.24 95.2 26.21 95.31 26.19 95.41 26.17 95.51 26.15 95.61 26.13 95.72 26.1 95.82 26.08 95.92 26.06 96.02 26.04 96.13 26.02 96.23 25.99 96.33 25.97 96.44 25.95 96.54 25.93 96.65 25.91 96.75 25.89 96.85 25.87 96.96 25.85 97.06 25.83 97.17 25.81 97.27 25.79 97.38 25.77 97.48 25.75 97.59 25.73 97.66 25.73 97.69 25.7 97.8 25.68 97.9 25.66 98.01 25.64 98.11 25.62 98.22 25.59 98.33 25.57 98.43 25.55 98.54 25.53 98.64 25.51 98.75 25.49 98.86 25.47 98.96 25.45 99.07 25.43 99.18 25.41 99.28 25.39 99.39 25.36 99.5 25.34 99.61 25.32 99.72 25.3 99.82 25.29 99.93 25.27 100.04 25.25 100.15 25.23 100.25 25.21 100.36 25.19 100.47 25.17 100.58 25.15 100.69 25.13 100.8 25.11 100.91 25.1 101.02 25.08 101.13 25.06 101.24 25.04 101.35 25.02 101.46 25 101.57 24.99 101.68 24.97 101.79 24.95 101.9 24.94 102.01 24.92 102.12 24.9 102.23 24.89 102.34 24.87 102.46 24.85 102.57 24.84 102.68 24.82 102.79 24.8 102.9 24.79 103.02 24.77 103.13 24.75 103.24 24.74 103.35 24.73 103.47 24.71 103.58 24.69 103.69 24.68 103.81 24.67 103.86 24.66 103.92 24.65 104.03 24.63 104.14 24.61 104.26 24.6 104.37 24.58 104.48 24.57 104.6 24.55 104.71 24.53 104.83 24.52 104.94 24.5 105.06 24.49 105.17 24.47 105.29 24.46 105.4 24.44 105.52 24.43 105.63 24.41 105.75 24.4 105.86 24.39 105.98 24.37 106.1 24.36 106.21 24.34 106.33 24.33 106.44 24.32 106.56 24.3 106.68 24.29 106.8 24.28 106.91 24.26 107.03 24.25 107.15 24.24 107.26 24.23 107.38 24.21 107.5 24.2 107.62 24.19 107.74 24.18 107.86 24.16 107.97 24.15 108.09 24.14 108.21 24.13 108.33 24.12 108.45 24.11 108.57 24.1 108.69 24.09 108.81 24.08 108.93 24.07 109.05 24.06 109.17 24.05 109.29 24.04 109.41 24.03 109.53 24.02 109.65 24.01 109.77 24 109.89 23.99 110.01 23.98 110.13 23.97 110.25 23.96 110.38 23.95 110.5 23.95 110.62 23.94 110.74 23.93 110.86 23.92 110.99 23.91 111.11 23.91 111.23 23.9 111.36 23.89 111.48 23.88 111.6 23.88 111.73 23.87 111.85 23.86 111.97 23.86 112.1 23.85 112.22 23.84 112.34 23.84 112.47 23.83 112.59 23.83 112.72 23.82 112.84 23.82 112.97 23.81 113.09 23.81 113.22 23.8 113.34 23.8 113.47 23.79 113.6 23.79 113.72 23.79 113.85 23.78 113.97 23.78 114.1 23.77 114.23 23.77 114.36 23.77 114.48 23.77 114.61 23.76 114.74 23.76 114.86 23.76 114.99 23.75 115.12 23.75 115.25 23.75 115.38 23.75 115.5 23.75 115.63 23.75 115.76 23.74 115.89 23.74 116.02 23.74 116.15 23.74 116.28 23.74 116.41 23.74 116.53 23.74 116.66 23.74 116.79 23.74 116.92 23.74 117.05 23.74 117.19 23.74 117.31 23.74 117.45 23.74 117.58 23.75 117.71 23.75 117.78 23.75 117.84 23.75 117.97 23.75 118.1 23.75 118.23 23.75 118.36 23.75 118.5 23.75 118.63 23.75 118.76 23.75 118.89 23.75 119.03 23.75 119.16 23.76 119.29 23.76 119.42 23.76 119.56 23.76 119.69 23.77 119.83 23.77 119.96 23.77 120.09 23.77 120.23 23.78 120.36 23.78 120.5 23.79 120.63 23.79 120.77 23.79 120.9 23.8 121.03 23.8 121.17 23.81 121.31 23.81 121.44 23.82 121.58 23.82 121.71 23.83 121.85 23.83 121.98 23.84 122.12 23.84 122.26 23.85 122.39 23.86 122.53 23.86 122.67 23.87 122.81 23.88 122.94 23.89 123.08 23.89 123.22 23.9 123.36 23.91 123.5 23.92 123.63 23.92 123.77 23.93 123.91 23.94 124.05 23.95 124.19 23.96 124.33 23.97 124.47 23.98 124.61 23.99 124.75 24 124.89 24.01 125.03 24.02 125.17 24.03 125.31 24.04 125.45 24.05 125.59 24.06 125.73 24.07 125.87 24.08 126.01 24.09 126.15 24.11 126.29 24.12 126.44 24.13 126.58 24.14 126.72 24.16 126.86 24.17 127 24.18 127.15 24.2 127.29 24.21 127.43 24.22 127.58 24.24 127.72 24.25 127.86 24.27 128.01 24.28 128.15 24.29 128.29 24.31 128.44 24.32 128.58 24.34 128.73 24.36 128.87 24.37 129.02 24.39 129.16 24.4 129.31 24.42 129.45 24.44 129.6 24.44 129.65 24.45 129.74 24.47 129.89 24.49 130.03 24.5 130.18 24.52 130.33 24.54 130.47 24.55 130.62 24.57 130.77 24.59 130.91 24.61 131.06 24.63 131.21 24.64 131.36 24.66 131.5 24.68 131.65 24.7 131.8 24.72 131.95 24.74 132.1 24.76 132.25 24.78 132.4 24.8 132.54 24.82 132.69 24.84 132.84 24.86 132.99 24.88 133.14 24.9 133.29 24.93 133.44 24.95 133.59 24.97 133.74 24.99 133.9 25.01 134.05 25.04 134.2 25.06 134.35 25.08 134.5 25.11 134.66 25.11 134.66 25.18 136.17 24.95 137.63 24.44 138.99 23.68 140.22 22.7 141.28 21.52 142.15 20.16 142.78 18.66 143.14 18.66 143.14 17.12 143.2 15.64 142.95 14.27 142.44 13.04 141.68 11.97 140.69 11.12 139.52 10.51 138.18 10.17 136.7 10.17 136.7 10.15 136.53 10.13 136.36 10.11 136.19 10.09 136.02 10.07 135.84 10.05 135.67 10.03 135.5 10.01 135.33 9.99 135.16 9.97 134.99 9.96 134.82 9.94 134.65 9.92 134.48 9.9 134.31 9.88 134.14 9.87 133.97 9.85 133.81 9.83 133.64 9.82 133.47 9.8 133.3 9.79 133.13 9.77 132.96 9.76 132.8 9.74 132.63 9.72 132.46 9.71 132.29 9.7 132.13 9.68 131.96 9.67 131.79 9.65 131.63 9.64 131.46 9.63 131.29 9.61 131.13 9.61 131.02 9.6 130.96 9.59 130.8 9.58 130.63 9.57 130.47 9.55 130.3 9.54 130.13 9.53 129.97 9.52 129.81 9.51 129.64 9.5 129.48 9.49 129.31 9.48 129.15 9.47 128.98 9.47 128.82 9.46 128.66 9.45 128.49 9.44 128.33 9.43 128.17 9.43 128 9.42 127.84 9.41 127.68 9.4 127.52 9.4 127.36 9.39 127.19 9.38 127.03 9.38 126.87 9.37 126.71 9.36 126.55 9.36 126.39 9.35 126.23 9.35 126.06 9.34 125.91 9.34 125.75 9.33 125.58 9.33 125.42 9.33 125.27 9.32 125.11 9.32 124.95 9.31 124.79 9.31 124.63 9.31 124.47 9.31 124.31 9.3 124.15 9.3 123.99 9.3 123.84 9.3 123.68 9.29 123.52 9.29 123.36 9.29 123.2 9.29 123.05 9.29 122.89 9.29 122.73 9.29 122.58 9.29 122.42 9.29 122.27 9.29 122.11 9.29 121.95 9.29 121.8 9.29 121.64 9.29 121.49 9.29 121.33 9.29 121.18 9.3 121.02 9.3 120.87 9.3 120.71 9.3 120.56 9.31 120.4 9.31 120.25 9.31 120.1 9.31 119.94 9.32 119.79 9.32 119.64 9.33 119.48 9.33 119.33 9.33 119.18 9.34 119.02 9.34 118.87 9.35 118.72 9.35 118.57 9.36 118.42 9.36 118.26 9.37 118.11 9.37 117.96 9.38 117.81 9.39 117.66 9.39 117.51 9.39 117.44 9.4 117.36 9.41 117.21 9.42 117.06 9.43 116.91 9.43 116.76 9.44 116.61 9.45 116.46 9.46 116.31 9.47 116.16 9.48 116.01 9.49 115.86 9.5 115.72 9.51 115.57 9.52 115.42 9.53 115.27 9.54 115.12 9.55 114.97 9.57 114.83 9.58 114.68 9.59 114.53 9.6 114.39 9.61 114.24 9.63 114.09 9.64 113.95 9.65 113.8 9.66 113.66 9.68 113.51 9.69 113.36 9.7 113.22 9.72 113.07 9.73 112.93 9.74 112.78 9.76 112.64 9.77 112.49 9.79 112.35 9.8 112.21 9.82 112.06 9.83 111.92 9.85 111.77 9.86 111.63 9.88 111.49 9.89 111.34 9.91 111.2 9.92 111.06 9.94 110.92 9.96 110.78 9.97 110.63 9.99 110.49 10.01 110.35 10.02 110.21 10.04 110.07 10.06 109.92 10.08 109.78 10.09 109.64 10.11 109.5 10.13 109.36 10.15 109.22 10.17 109.08 10.19 108.94 10.2 108.8 10.22 108.66 10.24 108.52 10.26 108.38 10.28 108.25 10.3 108.11 10.32 107.97 10.34 107.83 10.36 107.69 10.38 107.55 10.4 107.41 10.42 107.28 10.44 107.14 10.46 107 10.48 106.86 10.51 106.73 10.53 106.59 10.55 106.45 10.57 106.32 10.59 106.18 10.61 106.05 10.64 105.91 10.66 105.77 10.68 105.64 10.7 105.5 10.73 105.37 10.75 105.23 10.77 105.1 10.8 104.96 10.82 104.83 10.84 104.69 10.87 104.56 10.89 104.43 10.91 104.29 10.94 104.16 10.96 104.03 10.99 103.89 11.01 103.76 11.04 103.63 11.06 103.5 11.09 103.36 11.11 103.23 11.14 103.1 11.16 102.97 11.19 102.83 11.21 102.7 11.24 102.57 11.27 102.44 11.29 102.31 11.32 102.18 11.35 102.05 11.37 101.92 11.4 101.79 11.43 101.66 11.45 101.53 11.47 101.47 11.48 101.4 11.51 101.27 11.54 101.14 11.57 101.01 11.6 100.88 11.63 100.75 11.66 100.63 11.69 100.5 11.72 100.37 11.75 100.24 11.78 100.11 11.81 99.99 11.84 99.86 11.88 99.73 11.91 99.61 11.94 99.48 11.97 99.35 12 99.23 12.03 99.1 12.06 98.98 12.1 98.85 12.13 98.72 12.16 98.6 12.19 98.47 12.22 98.35 12.26 98.22 12.29 98.1 12.32 97.98 12.36 97.85 12.39 97.73 12.42 97.6 12.46 97.48 12.49 97.36 12.52 97.23 12.56 97.11 12.59 96.99 12.62 96.86 12.66 96.74 12.69 96.62 12.73 96.5 12.76 96.38 12.79 96.25 12.83 96.13 12.86 96.01 12.9 95.89 12.94 95.77 12.97 95.65 13.01 95.53 13.04 95.41 13.07 95.29 13.11 95.17 13.15 95.05 13.18 94.93 13.22 94.81 13.26 94.69 13.29 94.57 13.33 94.45 13.34 94.41 13.37 94.33 13.4 94.21 13.44 94.1 13.48 93.98 13.52 93.86 13.56 93.74 13.6 93.63 13.64 93.51 13.68 93.39 13.72 93.28 13.76 93.16 13.8 93.05 13.84 92.93 13.88 92.81 13.92 92.7 13.96 92.58 14 92.47 14.04 92.35 14.08 92.24 14.12 92.12 14.16 92.01 14.2 91.89 14.24 91.78 14.29 91.67 14.33 91.55 14.37 91.44 14.41 91.33 14.45 91.21 14.49 91.1 14.53 90.99 14.58 90.87 14.62 90.76 14.66 90.65 14.7 90.54 14.74 90.42 14.79 90.31 14.83 90.2 14.87 90.09 14.91 89.98 14.96 89.87 15 89.76 15.04 89.65 15.08 89.54 15.13 89.43 15.17 89.32 15.21 89.21 15.26 89.1 15.3 88.99 15.34 88.89 15.34 88.88 15.39 88.77 15.44 88.66 15.49 88.56 15.53 88.45 15.58 88.34 15.63 88.24 15.68 88.13 15.73 88.02 15.78 87.92 15.82 87.81 15.87 87.71 15.92 87.6 15.97 87.49 16.02 87.39 16.07 87.28 16.11 87.18 16.16 87.08 16.21 86.97 16.26 86.87 16.31 86.76 16.36 86.66 16.41 86.56 16.46 86.45 16.5 86.35 16.55 86.25 16.6 86.14 16.65 86.04 16.7 85.94 16.75 85.83 16.8 85.73 16.85 85.63 16.9 85.53 16.95 85.43 17 85.33 17.05 85.22 17.1 85.12 17.15 85.02 17.2 84.92 17.25 84.82 17.3 84.72 17.35 84.62 17.4 84.52 17.45 84.42 17.5 84.32 17.55 84.22 17.6 84.12 17.65 84.02 17.7 83.92 17.75 83.83 17.8 83.73 17.85 83.63 17.9 83.53 17.95 83.43 17.99 83.35 18 83.33 18.05 83.24 18.11 83.14 18.16 83.05 18.21 82.95 18.27 82.86 18.32 82.76 18.37 82.66 18.43 82.57 18.48 82.47 18.54 82.38 18.59 82.28 18.64 82.19 18.7 82.1 18.75 82 18.8 81.91 18.86 81.81 18.91 81.72 18.96 81.63 19.02 81.53 19.07 81.44 19.13 81.35 19.18 81.26 19.23 81.16 19.29 81.07 19.34 80.98 19.39 80.89 19.45 80.8 19.5 80.7 19.56 80.61 19.61 80.52 19.66 80.43 19.72 80.34 19.77 80.25 19.83 80.16 19.88 80.07 19.94 79.98 19.99 79.89 20.04 79.8 20.1 79.71 20.15 79.62 20.21 79.53 20.26 79.44 20.31 79.35 20.37 79.26 20.42 79.17 20.48 79.09 20.53 79 20.59 78.91 20.64 78.82 20.69 78.73 20.75 78.65 20.8 78.56 20.86 78.47 20.91 78.39 20.96 78.3 21.02 78.21 21.07 78.13 21.13 78.04 21.18 77.95 21.24 77.87 21.29 77.79 21.35 77.7 21.4 77.61 21.46 77.53 21.51 77.44 21.57 77.36 21.63 77.28 21.68 77.19 21.74 77.11 21.85 76.94 21.96 76.78 22.07 76.61 22.18 76.45 22.3 76.28 22.41 76.12 22.52 75.96 22.63 75.8 22.74 75.63 22.85 75.47 22.96 75.31 23.07 75.15 23.18 75 23.3 74.84 23.41 74.68 23.52 74.52 23.63 74.37 23.74 74.21 23.85 74.06 23.96 73.9 24.07 73.75 24.18 73.6 24.29 73.44 24.4 73.29 24.51 73.14 24.62 72.99 24.73 72.84 24.84 72.69 24.95 72.55 25.06 72.4 25.17 72.25 25.28 72.1 25.39 71.96 25.49 71.81 25.6 71.67 25.71 71.53 25.82 71.38 25.93 71.24 26.04 71.1 26.15 70.96 26.25 70.81 26.36 70.67 26.47 70.54 26.58 70.4 26.68 70.26 26.79 70.12 26.9 69.98 27.01 69.85 27.11 69.71 27.22 69.58 27.33 69.44 27.43 69.31 27.54 69.18 27.65 69.04 27.75 68.91 27.86 68.78 27.96 68.65 28.07 68.52 28.18 68.39 28.28 68.26 28.39 68.13 28.49 68 28.59 67.88 28.7 67.75 28.8 67.63 28.91 67.5 28.95 67.45 29.01 67.38 29.11 67.25 29.22 67.13 29.32 67 29.43 66.88 29.53 66.76 29.63 66.64 29.73 66.52 29.83 66.4 29.94 66.28 30.04 66.16 30.14 66.04 30.24 65.92 30.34 65.81 30.44 65.69 30.54 65.58 30.64 65.46 30.74 65.34 30.84 65.23 30.94 65.12 31.04 65 31.14 64.89 31.24 64.78 31.34 64.67 31.44 64.56 31.54 64.45 31.64 64.34 31.73 64.23 31.83 64.12 31.93 64.02 32.02 63.91 32.12 63.8 32.22 63.7 32.31 63.59 32.41 63.49 32.51 63.38 32.6 63.28 32.7 63.18 32.79 63.07 32.89 62.97 32.98 62.87 33.08 62.77 33.17 62.67 33.26 62.57 33.35 62.47 33.45 62.37 33.54 62.28 33.63 62.18 33.73 62.08 33.82 61.99 33.91 61.89 34 61.8 34.09 61.7 34.18 61.61 34.27 61.52 34.36 61.42 34.45 61.33 34.54 61.24 34.63 61.15 34.72 61.06 34.8 60.97 34.89 60.88 34.98 60.79 35.07 60.71 35.15 60.62 35.24 60.53 35.33 60.45 35.41 60.36 35.5 60.28 35.58 60.19 35.67 60.11 35.75 60.02 35.84 59.94 35.92 59.86 36 59.78 36.09 59.7 36.17 59.62 36.25 59.54 36.33 59.46 36.41 59.38 36.49 59.3 36.57 59.23 36.59 59.21 36.65 59.15 36.73 59.07 36.81 58.99 36.89 58.92 36.97 58.84 37.05 58.77 37.12 58.7 37.2 58.62 37.27 58.55 37.35 58.48 37.43 58.41 37.5 58.33 37.58 58.26 37.65 58.19 37.73 58.13 37.8 58.05 37.87 57.99 37.94 57.92 38.02 57.85 38.09 57.79 38.16 57.72 38.23 57.66 38.3 57.59 38.37 57.53 38.44 57.46 38.51 57.4 38.58 57.34 38.65 57.28 38.72 57.22 38.78 57.15 38.85 57.09 38.91 57.03 38.98 56.98 39.05 56.92 39.11 56.86 39.18 56.8 39.24 56.75 39.3 56.69 39.37 56.63 39.43 56.58 39.49 56.53 39.55 56.47 39.61 56.42 39.67 56.37 39.73 56.31 39.85 56.21 39.89 56.18 39.97 56.11 40.08 56.01 40.19 55.92 40.3 55.82 40.41 55.73 40.52 55.64 40.62 55.56 40.72 55.47 40.82 55.39 40.91 55.31 41.01 55.23 41.1 55.16 41.19 55.08 41.28 55.01 41.33 54.97 41.36 54.94 41.44 54.88 41.52 54.81 41.6 54.75 41.67 54.69 41.75 54.63 41.82 54.58 41.88 54.53 41.95 54.48 42.01 54.43 42.07 54.38 42.12 54.34 42.18 54.3 42.23 54.26 42.28 54.22 42.32 54.19 42.37 54.16 42.44 54.1 42.51 54.05 42.56 54.01 42.6 53.98 42.63 53.96 43.13 53.68 43.65 53.51 44.73 53.48 45.74 53.85 45.74 53.85"/>
    <polygon class="cls-1" points="118.77 53.51 119.29 53.68 119.78 53.96 119.79 53.96 119.82 53.98 119.86 54.01 119.91 54.05 119.98 54.1 120.05 54.16 120.1 54.19 120.14 54.22 120.19 54.26 120.24 54.3 120.3 54.34 120.35 54.38 120.41 54.43 120.47 54.48 120.54 54.53 120.6 54.58 120.67 54.63 120.74 54.69 120.82 54.75 120.9 54.81 120.97 54.88 121.06 54.94 121.09 54.97 121.14 55.01 121.23 55.08 121.32 55.16 121.41 55.23 121.5 55.31 121.6 55.39 121.7 55.47 121.8 55.56 121.9 55.64 122.01 55.73 122.11 55.82 122.22 55.92 122.34 56.01 122.45 56.11 122.53 56.18 122.57 56.21 122.68 56.31 122.74 56.37 122.81 56.42 122.87 56.47 122.93 56.53 122.99 56.58 123.05 56.63 123.11 56.69 123.18 56.75 123.24 56.8 123.31 56.86 123.37 56.92 123.44 56.98 123.5 57.03 123.57 57.09 123.64 57.15 123.7 57.22 123.77 57.28 123.84 57.34 123.91 57.4 123.98 57.46 124.05 57.53 124.12 57.59 124.19 57.66 124.26 57.72 124.33 57.79 124.4 57.85 124.47 57.92 124.55 57.99 124.62 58.05 124.69 58.13 124.77 58.19 124.84 58.26 124.92 58.33 124.99 58.41 125.07 58.48 125.14 58.55 125.22 58.62 125.3 58.7 125.37 58.77 125.45 58.84 125.53 58.92 125.61 58.99 125.69 59.07 125.77 59.15 125.83 59.21 125.84 59.23 125.92 59.3 126.01 59.38 126.09 59.46 126.17 59.54 126.25 59.62 126.33 59.7 126.42 59.78 126.5 59.86 126.58 59.94 126.67 60.02 126.75 60.11 126.84 60.19 126.92 60.28 127.01 60.36 127.09 60.45 127.18 60.53 127.27 60.62 127.35 60.71 127.44 60.79 127.53 60.88 127.61 60.97 127.7 61.06 127.79 61.15 127.88 61.24 127.97 61.33 128.06 61.42 128.15 61.52 128.24 61.61 128.33 61.7 128.42 61.8 128.51 61.89 128.6 61.99 128.69 62.08 128.79 62.18 128.88 62.28 128.97 62.37 129.06 62.47 129.16 62.57 129.25 62.67 129.34 62.77 129.44 62.87 129.53 62.97 129.63 63.07 129.72 63.18 129.82 63.28 129.91 63.38 130.01 63.49 130.1 63.59 130.2 63.7 130.3 63.8 130.39 63.91 130.49 64.02 130.59 64.12 130.69 64.23 130.78 64.34 130.88 64.45 130.98 64.56 131.08 64.67 131.18 64.78 131.28 64.89 131.38 65 131.47 65.12 131.57 65.23 131.67 65.34 131.77 65.46 131.88 65.58 131.98 65.69 132.08 65.81 132.18 65.92 132.28 66.04 132.38 66.16 132.48 66.28 132.58 66.4 132.69 66.52 132.79 66.64 132.89 66.76 132.99 66.88 133.1 67 133.2 67.13 133.3 67.25 133.41 67.38 133.47 67.45 133.51 67.5 133.62 67.63 133.72 67.75 133.82 67.88 133.93 68 134.03 68.13 134.14 68.26 134.24 68.39 134.35 68.52 134.45 68.65 134.56 68.78 134.67 68.91 134.77 69.04 134.88 69.18 134.99 69.31 135.09 69.44 135.2 69.58 135.31 69.71 135.41 69.85 135.52 69.98 135.63 70.12 135.73 70.26 135.84 70.4 135.95 70.54 136.06 70.67 136.16 70.81 136.27 70.96 136.38 71.1 136.49 71.24 136.6 71.38 136.71 71.53 136.82 71.67 136.92 71.81 137.03 71.96 137.14 72.1 137.25 72.25 137.36 72.4 137.47 72.55 137.58 72.69 137.69 72.84 137.8 72.99 137.91 73.14 138.02 73.29 138.13 73.44 138.24 73.6 138.35 73.75 138.46 73.9 138.57 74.06 138.68 74.21 138.79 74.37 138.9 74.52 139.01 74.68 139.12 74.84 139.23 75 139.35 75.15 139.46 75.31 139.57 75.47 139.68 75.63 139.79 75.8 139.9 75.96 140.01 76.12 140.12 76.28 140.24 76.45 140.35 76.61 140.46 76.78 140.57 76.94 140.68 77.11 140.74 77.19 140.79 77.28 140.85 77.36 140.91 77.44 140.96 77.53 141.02 77.61 141.07 77.7 141.13 77.78 141.13 77.79 141.18 77.87 141.24 77.95 141.29 78.04 141.35 78.13 141.4 78.21 141.45 78.3 141.51 78.39 141.56 78.47 141.62 78.56 141.67 78.65 141.72 78.73 141.78 78.82 141.83 78.91 141.89 79 141.94 79.09 142 79.17 142.05 79.26 142.1 79.35 142.16 79.44 142.21 79.53 142.27 79.62 142.32 79.71 142.38 79.8 142.43 79.89 142.48 79.98 142.54 80.07 142.59 80.16 142.65 80.25 142.7 80.34 142.75 80.43 142.81 80.52 142.86 80.61 142.91 80.7 142.97 80.8 143.02 80.89 143.08 80.98 143.13 81.07 143.18 81.16 143.24 81.26 143.29 81.35 143.35 81.44 143.4 81.53 143.45 81.63 143.51 81.72 143.56 81.81 143.62 81.91 143.67 82 143.72 82.1 143.78 82.19 143.83 82.28 143.88 82.38 143.94 82.47 143.99 82.57 144.04 82.66 144.1 82.76 144.15 82.86 144.21 82.95 144.26 83.05 144.31 83.14 144.37 83.24 144.42 83.33 144.43 83.35 144.47 83.43 144.52 83.53 144.57 83.63 144.62 83.73 144.67 83.83 144.72 83.92 144.77 84.02 144.82 84.12 144.87 84.22 144.92 84.32 144.97 84.42 145.02 84.52 145.07 84.62 145.12 84.72 145.17 84.82 145.22 84.92 145.27 85.02 145.32 85.12 145.37 85.22 145.42 85.33 145.47 85.43 145.52 85.53 145.57 85.63 145.62 85.73 145.67 85.83 145.72 85.94 145.77 86.04 145.82 86.14 145.87 86.25 145.91 86.35 145.96 86.45 146.01 86.56 146.06 86.66 146.11 86.76 146.16 86.87 146.21 86.97 146.26 87.08 146.31 87.18 146.35 87.28 146.4 87.39 146.45 87.49 146.5 87.6 146.55 87.71 146.59 87.81 146.64 87.92 146.69 88.02 146.74 88.13 146.79 88.24 146.84 88.34 146.88 88.45 146.93 88.56 146.98 88.66 147.03 88.77 147.07 88.88 147.08 88.89 147.12 88.99 147.16 89.1 147.21 89.21 147.25 89.32 147.29 89.43 147.33 89.54 147.38 89.65 147.42 89.76 147.46 89.87 147.5 89.98 147.55 90.09 147.59 90.2 147.63 90.31 147.68 90.42 147.72 90.54 147.76 90.65 147.8 90.76 147.84 90.87 147.88 90.99 147.93 91.1 147.97 91.21 148.01 91.33 148.05 91.44 148.09 91.55 148.13 91.67 148.17 91.78 148.22 91.89 148.26 92.01 148.3 92.12 148.34 92.24 148.38 92.35 148.42 92.47 148.46 92.58 148.5 92.7 148.54 92.81 148.58 92.93 148.62 93.05 148.66 93.16 148.7 93.28 148.74 93.39 148.78 93.51 148.82 93.63 148.86 93.74 148.9 93.86 148.94 93.98 148.97 94.1 149.01 94.21 149.05 94.33 149.08 94.41 149.09 94.45 149.13 94.57 149.16 94.69 149.2 94.81 149.24 94.93 149.27 95.05 149.31 95.17 149.34 95.29 149.38 95.41 149.41 95.53 149.45 95.65 149.48 95.77 149.52 95.89 149.55 96.01 149.59 96.13 149.62 96.25 149.66 96.38 149.69 96.5 149.73 96.62 149.76 96.74 149.79 96.86 149.83 96.99 149.86 97.11 149.9 97.23 149.93 97.36 149.96 97.48 150 97.6 150.03 97.73 150.06 97.85 150.1 97.98 150.13 98.1 150.16 98.22 150.19 98.35 150.23 98.47 150.26 98.6 150.29 98.72 150.32 98.85 150.35 98.98 150.39 99.1 150.42 99.23 150.45 99.35 150.48 99.48 150.51 99.61 150.54 99.73 150.57 99.86 150.6 99.99 150.64 100.11 150.67 100.24 150.7 100.37 150.73 100.5 150.76 100.63 150.79 100.75 150.82 100.88 150.85 101.01 150.88 101.14 150.91 101.27 150.94 101.4 150.95 101.47 150.96 101.53 150.99 101.66 151.02 101.79 151.04 101.92 151.07 102.05 151.1 102.18 151.13 102.31 151.15 102.44 151.18 102.57 151.2 102.7 151.23 102.83 151.25 102.97 151.28 103.1 151.31 103.23 151.33 103.36 151.36 103.5 151.38 103.63 151.41 103.76 151.43 103.89 151.46 104.03 151.48 104.16 151.5 104.29 151.53 104.43 151.55 104.56 151.58 104.69 151.6 104.83 151.62 104.96 151.65 105.1 151.67 105.23 151.69 105.37 151.72 105.5 151.74 105.64 151.76 105.77 151.78 105.91 151.81 106.05 151.83 106.18 151.85 106.32 151.87 106.45 151.89 106.59 151.91 106.73 151.94 106.86 151.96 107 151.98 107.14 152 107.28 152.02 107.41 152.04 107.55 152.06 107.69 152.08 107.83 152.1 107.97 152.12 108.11 152.14 108.25 152.16 108.38 152.18 108.52 152.19 108.66 152.22 108.8 152.23 108.94 152.25 109.08 152.27 109.22 152.29 109.36 152.31 109.5 152.32 109.64 152.34 109.78 152.36 109.92 152.38 110.07 152.39 110.21 152.41 110.35 152.43 110.49 152.44 110.63 152.46 110.78 152.48 110.92 152.49 111.06 152.51 111.2 152.53 111.34 152.54 111.49 152.56 111.63 152.57 111.77 152.59 111.92 152.6 112.06 152.62 112.21 152.63 112.35 152.65 112.49 152.66 112.64 152.67 112.78 152.69 112.93 152.7 113.07 152.72 113.22 152.73 113.36 152.74 113.51 152.75 113.66 152.77 113.8 152.78 113.95 152.79 114.09 152.81 114.24 152.82 114.39 152.83 114.53 152.84 114.68 152.85 114.83 152.86 114.97 152.88 115.12 152.89 115.27 152.9 115.42 152.91 115.57 152.92 115.72 152.93 115.86 152.94 116.01 152.95 116.16 152.96 116.31 152.97 116.46 152.98 116.61 152.98 116.76 152.99 116.91 153 117.06 153.01 117.21 153.02 117.36 153.02 117.44 153.03 117.51 153.03 117.66 153.04 117.81 153.04 117.96 153.05 118.11 153.06 118.26 153.06 118.42 153.07 118.57 153.07 118.72 153.08 118.87 153.08 119.02 153.09 119.18 153.09 119.33 153.09 119.48 153.1 119.64 153.1 119.79 153.1 119.94 153.11 120.1 153.11 120.25 153.11 120.4 153.12 120.56 153.12 120.71 153.12 120.87 153.12 121.02 153.12 121.18 153.13 121.33 153.13 121.49 153.13 121.64 153.13 121.8 153.13 121.95 153.13 122.11 153.13 122.27 153.13 122.42 153.13 122.58 153.13 122.73 153.13 122.89 153.13 123.05 153.13 123.2 153.13 123.36 153.12 123.52 153.12 123.68 153.12 123.84 153.12 123.99 153.12 124.15 153.11 124.31 153.11 124.47 153.11 124.63 153.1 124.79 153.1 124.95 153.1 125.11 153.09 125.27 153.09 125.42 153.08 125.58 153.08 125.75 153.07 125.91 153.07 126.06 153.06 126.23 153.06 126.39 153.05 126.55 153.05 126.71 153.04 126.87 153.04 127.03 153.03 127.19 153.02 127.36 153.02 127.52 153.01 127.68 153 127.84 152.99 128 152.99 128.17 152.98 128.33 152.97 128.49 152.96 128.66 152.95 128.82 152.94 128.98 152.93 129.15 152.93 129.31 152.91 129.48 152.91 129.64 152.9 129.81 152.88 129.97 152.87 130.13 152.86 130.3 152.85 130.47 152.84 130.63 152.83 130.8 152.82 130.96 152.81 131.02 152.81 131.13 152.79 131.29 152.78 131.46 152.76 131.63 152.75 131.79 152.74 131.96 152.72 132.13 152.71 132.29 152.69 132.46 152.68 132.63 152.66 132.8 152.65 132.96 152.63 133.13 152.62 133.3 152.6 133.47 152.58 133.64 152.57 133.81 152.55 133.97 152.53 134.14 152.52 134.31 152.5 134.48 152.48 134.65 152.46 134.82 152.44 134.99 152.43 135.16 152.41 135.33 152.39 135.5 152.37 135.67 152.35 135.84 152.33 136.02 152.31 136.19 152.29 136.36 152.27 136.53 152.25 136.7 152.25 136.7 151.91 138.18 151.3 139.52 150.44 140.69 149.38 141.68 148.15 142.44 146.78 142.95 145.3 143.2 143.76 143.14 143.76 143.14 142.26 142.78 140.9 142.15 139.72 141.28 138.73 140.22 137.97 138.99 137.47 137.63 137.24 136.17 137.31 134.66 137.34 134.5 137.36 134.35 137.38 134.2 137.41 134.05 137.43 133.9 137.45 133.74 137.47 133.59 137.49 133.44 137.51 133.29 137.54 133.14 137.56 132.99 137.58 132.84 137.6 132.69 137.62 132.54 137.64 132.4 137.66 132.25 137.68 132.1 137.7 131.95 137.72 131.8 137.74 131.65 137.76 131.5 137.78 131.36 137.79 131.21 137.81 131.06 137.83 130.91 137.85 130.77 137.87 130.62 137.88 130.47 137.9 130.33 137.92 130.18 137.93 130.03 137.95 129.89 137.97 129.74 137.98 129.65 137.98 129.6 138 129.45 138.01 129.31 138.03 129.16 138.05 129.02 138.06 128.87 138.08 128.73 138.09 128.58 138.11 128.44 138.12 128.29 138.14 128.15 138.15 128.01 138.17 127.86 138.18 127.72 138.2 127.58 138.21 127.43 138.22 127.29 138.24 127.15 138.25 127 138.26 126.86 138.28 126.72 138.29 126.58 138.3 126.44 138.31 126.29 138.32 126.15 138.34 126.01 138.35 125.87 138.36 125.73 138.37 125.59 138.38 125.45 138.39 125.31 138.4 125.17 138.41 125.03 138.42 124.89 138.43 124.75 138.44 124.61 138.45 124.47 138.46 124.33 138.47 124.19 138.48 124.05 138.49 123.91 138.49 123.77 138.5 123.63 138.51 123.5 138.52 123.36 138.53 123.22 138.53 123.08 138.54 122.94 138.55 122.81 138.55 122.67 138.56 122.53 138.57 122.39 138.57 122.26 138.58 122.12 138.59 121.98 138.59 121.85 138.6 121.71 138.6 121.58 138.61 121.44 138.61 121.31 138.62 121.17 138.62 121.03 138.63 120.9 138.63 120.77 138.63 120.63 138.64 120.5 138.64 120.36 138.64 120.23 138.65 120.09 138.65 119.96 138.65 119.83 138.66 119.69 138.66 119.56 138.66 119.42 138.66 119.29 138.66 119.16 138.67 119.03 138.67 118.89 138.67 118.76 138.67 118.63 138.67 118.5 138.67 118.36 138.67 118.23 138.67 118.1 138.67 117.97 138.67 117.84 138.67 117.78 138.67 117.71 138.68 117.58 138.68 117.45 138.68 117.31 138.68 117.19 138.68 117.05 138.68 116.92 138.68 116.79 138.68 116.66 138.68 116.53 138.68 116.41 138.68 116.28 138.68 116.15 138.68 116.02 138.68 115.89 138.67 115.76 138.67 115.63 138.67 115.5 138.67 115.38 138.67 115.25 138.66 115.12 138.66 114.99 138.66 114.86 138.66 114.74 138.65 114.61 138.65 114.48 138.65 114.36 138.64 114.23 138.64 114.1 138.64 113.97 138.63 113.85 138.63 113.72 138.62 113.6 138.62 113.47 138.62 113.34 138.61 113.22 138.61 113.09 138.6 112.97 138.59 112.84 138.59 112.72 138.58 112.59 138.58 112.47 138.57 112.34 138.57 112.22 138.56 112.1 138.55 111.97 138.55 111.85 138.54 111.73 138.53 111.6 138.53 111.48 138.52 111.36 138.51 111.23 138.5 111.11 138.5 110.99 138.49 110.86 138.48 110.74 138.47 110.62 138.47 110.5 138.46 110.38 138.45 110.25 138.44 110.13 138.43 110.01 138.42 109.89 138.41 109.77 138.4 109.65 138.39 109.53 138.38 109.41 138.37 109.29 138.36 109.17 138.35 109.05 138.34 108.93 138.33 108.81 138.32 108.69 138.31 108.57 138.3 108.45 138.29 108.33 138.28 108.21 138.26 108.09 138.25 107.97 138.24 107.86 138.23 107.74 138.22 107.62 138.21 107.5 138.19 107.38 138.18 107.26 138.17 107.15 138.16 107.03 138.14 106.91 138.13 106.8 138.12 106.68 138.1 106.56 138.09 106.44 138.07 106.33 138.06 106.21 138.05 106.1 138.03 105.98 138.02 105.86 138 105.75 137.99 105.63 137.98 105.52 137.96 105.4 137.94 105.29 137.93 105.17 137.91 105.06 137.9 104.94 137.88 104.83 137.87 104.71 137.85 104.6 137.84 104.48 137.82 104.37 137.81 104.26 137.79 104.14 137.77 104.03 137.75 103.92 137.75 103.86 137.74 103.81 137.72 103.69 137.71 103.58 137.69 103.47 137.68 103.35 137.66 103.24 137.65 103.13 137.63 103.02 137.62 102.9 137.6 102.79 137.58 102.68 137.57 102.57 137.55 102.46 137.53 102.34 137.52 102.23 137.5 102.12 137.48 102.01 137.47 101.9 137.45 101.79 137.43 101.68 137.41 101.57 137.4 101.46 137.38 101.35 137.36 101.24 137.34 101.13 137.32 101.02 137.31 100.91 137.29 100.8 137.27 100.69 137.25 100.58 137.23 100.47 137.21 100.36 137.19 100.25 137.17 100.15 137.15 100.04 137.13 99.93 137.11 99.82 137.09 99.72 137.07 99.61 137.05 99.5 137.03 99.39 137.01 99.28 136.99 99.18 136.97 99.07 136.95 98.96 136.93 98.86 136.91 98.75 136.89 98.64 136.87 98.54 136.85 98.43 136.82 98.33 136.8 98.22 136.78 98.11 136.76 98.01 136.74 97.9 136.72 97.8 136.69 97.69 136.69 97.66 136.67 97.59 136.65 97.48 136.63 97.38 136.61 97.27 136.59 97.17 136.57 97.06 136.55 96.96 136.53 96.85 136.51 96.75 136.49 96.65 136.47 96.54 136.44 96.44 136.42 96.33 136.4 96.23 136.38 96.13 136.36 96.02 136.34 95.92 136.32 95.82 136.29 95.72 136.27 95.61 136.25 95.51 136.23 95.41 136.2 95.31 136.18 95.2 136.16 95.1 136.13 95 136.11 94.9 136.09 94.8 136.07 94.69 136.04 94.59 136.02 94.49 136 94.39 135.97 94.29 135.95 94.19 135.92 94.09 135.9 93.99 135.88 93.89 135.85 93.79 135.83 93.69 135.8 93.59 135.78 93.49 135.75 93.39 135.73 93.29 135.7 93.19 135.68 93.09 135.65 92.99 135.63 92.89 135.6 92.79 135.58 92.7 135.58 92.69 135.56 92.59 135.53 92.5 135.51 92.4 135.49 92.3 135.47 92.2 135.45 92.1 135.43 92 135.4 91.9 135.38 91.8 135.36 91.7 135.34 91.6 135.31 91.51 135.29 91.41 135.27 91.31 135.24 91.21 135.22 91.11 135.2 91.02 135.18 90.92 135.15 90.82 135.13 90.72 135.1 90.63 135.08 90.53 135.06 90.43 135.03 90.34 135.01 90.24 134.98 90.14 134.96 90.05 134.94 89.95 134.91 89.86 134.88 89.76 134.86 89.67 134.84 89.57 134.81 89.47 134.78 89.38 134.76 89.28 134.73 89.19 134.71 89.09 134.68 89 134.66 88.91 134.63 88.81 134.6 88.72 134.58 88.62 134.55 88.53 134.53 88.44 134.5 88.34 134.47 88.25 134.45 88.15 134.42 88.06 134.39 87.97 134.37 87.88 134.34 87.78 134.31 87.69 134.28 87.6 134.26 87.52 134.26 87.5 134.23 87.41 134.21 87.32 134.18 87.22 134.16 87.13 134.13 87.04 134.11 86.95 134.08 86.85 134.06 86.76 134.03 86.67 134.01 86.58 133.98 86.48 133.96 86.39 133.93 86.3 133.9 86.21 133.88 86.12 133.85 86.03 133.82 85.94 133.8 85.84 133.77 85.75 133.74 85.66 133.72 85.57 133.69 85.48 133.66 85.39 133.63 85.3 133.61 85.21 133.58 85.12 133.55 85.03 133.53 84.94 133.5 84.85 133.47 84.76 133.44 84.67 133.41 84.59 133.38 84.5 133.36 84.41 133.33 84.32 133.3 84.23 133.27 84.14 133.24 84.06 133.21 83.97 133.19 83.88 133.16 83.79 133.13 83.7 133.1 83.62 133.07 83.53 133.04 83.44 133.01 83.36 132.98 83.27 132.95 83.18 132.92 83.1 132.89 83.01 132.86 82.92 132.83 82.84 132.8 82.75 132.77 82.67 132.74 82.58 132.71 82.5 132.68 82.41 132.65 82.33 132.62 82.24 132.59 82.16 132.56 82.08 132.56 82.07 132.53 81.98 132.5 81.9 132.47 81.81 132.44 81.73 132.41 81.64 132.38 81.56 132.35 81.48 132.32 81.39 132.26 81.22 132.2 81.06 132.14 80.89 132.07 80.72 132.01 80.56 131.95 80.39 131.89 80.23 131.83 80.06 131.76 79.9 131.7 79.74 131.63 79.58 131.57 79.41 131.51 79.25 131.44 79.09 131.38 78.93 131.31 78.77 131.24 78.61 131.18 78.46 131.11 78.3 131.04 78.14 130.98 77.99 130.91 77.83 130.84 77.68 130.77 77.52 130.71 77.37 130.64 77.22 130.57 77.06 130.5 76.91 130.43 76.76 130.36 76.61 130.29 76.46 130.22 76.31 130.15 76.16 130.08 76.02 130.01 75.87 129.94 75.72 129.87 75.58 129.8 75.43 129.72 75.29 129.65 75.14 129.58 75 129.51 74.86 129.44 74.71 129.36 74.57 129.29 74.43 129.22 74.29 129.15 74.15 129.07 74.01 129 73.87 128.92 73.73 128.85 73.6 128.78 73.46 128.7 73.33 128.63 73.19 128.55 73.06 128.48 72.92 128.41 72.79 128.33 72.66 128.25 72.52 128.18 72.39 128.1 72.26 128.03 72.13 127.95 72 127.88 71.87 127.8 71.74 127.73 71.62 127.7 71.57 127.65 71.49 127.58 71.36 127.5 71.24 127.42 71.11 127.35 70.99 127.27 70.86 127.2 70.74 127.12 70.62 127.04 70.5 126.97 70.37 126.89 70.25 126.81 70.13 126.74 70.01 126.66 69.9 126.58 69.78 126.51 69.66 126.43 69.54 126.36 69.43 126.28 69.31 126.2 69.2 126.13 69.08 126.05 68.97 125.97 68.86 125.9 68.74 125.82 68.63 125.74 68.52 125.67 68.41 125.59 68.3 125.51 68.19 125.44 68.08 125.36 67.97 125.28 67.87 125.21 67.76 125.13 67.66 125.06 67.55 124.98 67.44 124.9 67.34 124.83 67.24 124.75 67.13 124.68 67.03 124.6 66.93 124.53 66.83 124.45 66.73 124.38 66.63 124.3 66.53 124.23 66.43 124.15 66.33 124.08 66.24 124 66.14 123.93 66.04 123.85 65.95 123.78 65.85 123.7 65.76 123.63 65.67 123.56 65.57 123.48 65.48 123.41 65.39 123.34 65.3 123.26 65.21 123.19 65.12 123.12 65.03 123.05 64.94 122.97 64.85 122.9 64.77 122.83 64.68 122.76 64.59 122.69 64.51 122.61 64.42 122.54 64.34 122.47 64.26 122.4 64.17 122.33 64.09 122.26 64.01 122.19 63.93 122.12 63.85 122.05 63.77 121.98 63.69 121.91 63.61 121.84 63.53 121.78 63.45 121.71 63.38 121.64 63.3 121.63 63.29 121.57 63.23 121.5 63.15 121.44 63.08 121.37 63.01 121.3 62.93 121.23 62.86 121.17 62.79 121.1 62.72 121.03 62.65 120.97 62.58 120.9 62.51 120.84 62.45 120.78 62.38 120.71 62.31 120.65 62.24 120.58 62.18 120.52 62.11 120.46 62.05 120.39 61.98 120.33 61.92 120.27 61.86 120.21 61.8 120.15 61.73 120.09 61.67 120.03 61.61 119.97 61.55 119.91 61.49 119.85 61.44 119.79 61.38 119.73 61.32 119.67 61.26 119.61 61.21 119.56 61.15 119.5 61.1 119.44 61.04 119.39 60.99 119.33 60.94 119.28 60.88 119.22 60.83 119.17 60.78 119.12 60.73 119.06 60.68 119.01 60.63 118.96 60.58 118.91 60.53 118.8 60.44 118.77 60.4 118.7 60.34 118.6 60.25 118.5 60.17 118.41 60.08 118.31 60 118.22 59.92 118.13 59.84 118.05 59.76 117.96 59.69 117.88 59.62 117.8 59.55 117.72 59.48 117.64 59.42 117.57 59.35 117.53 59.32 117.5 59.29 117.43 59.24 117.36 59.18 117.3 59.13 117.23 59.08 117.17 59.03 117.11 58.98 117.06 58.94 117.01 58.9 116.96 58.86 116.91 58.82 116.86 58.79 116.82 58.76 116.78 58.73 116.74 58.7 116.71 58.67 116.68 58.65 116.62 58.6 116.58 58.57 116.55 58.55 116.53 58.54 116.51 58.52 116.51 58.52 116.09 58.15 115.75 57.71 115.38 56.7 115.41 55.62 115.58 55.09 115.87 54.61 115.87 54.6 116.24 54.18 116.68 53.85 117.69 53.48 118.77 53.51 118.77 53.51"/>
    <path class="cls-2" d="M101.52,142.16A6.48,6.48,0,0,1,95,135.68V83.4a6.49,6.49,0,0,1,13,0v52.28A6.49,6.49,0,0,1,101.52,142.16Zm-42,0A6.48,6.48,0,0,1,53,135.68V83.4a6.49,6.49,0,0,1,13,0v52.28A6.49,6.49,0,0,1,59.5,142.16Z"/>
    <path class="cls-3" d="M124.51,44.29a12.26,12.26,0,0,0-11-10.55,361.41,361.41,0,0,0-66.44,0A12.29,12.29,0,0,0,36,44.61c-2.39,21.72-4.63,43.29-3.43,64.73a12.23,12.23,0,0,0,10.5,11.4c24.37,3.35,51.46,3.45,74.29.07a12.25,12.25,0,0,0,10.32-11c2-21.86-.18-43.72-3.17-65.57Z"/>
    <g>
      <path class="cls-4" d="M114.44,56.24a12.93,12.93,0,0,0-12.92-12.92h-42a12.92,12.92,0,0,0,0,25.84h42a12.93,12.93,0,0,0,12.92-12.92Z"/>
      <path class="cls-5" d="M101.52,71.63h-42a15.39,15.39,0,0,1,0-30.78h42a15.39,15.39,0,1,1,0,30.78Zm-42-25.84a10.45,10.45,0,0,0,0,20.9h42a10.45,10.45,0,1,0,0-20.9Z"/>
    </g>
    <path class="cls-6" d="M59.5,52a4.24,4.24,0,1,1-4.24,4.24A4.25,4.25,0,0,1,59.5,52Z"/>
    <path class="cls-6" d="M101.52,52a4.24,4.24,0,1,1-4.24,4.24A4.24,4.24,0,0,1,101.52,52Z"/>
  </g>
</svg>
