<?xml version="1.0" standalone="no"?>
<svg class="icon" style="" viewBox="0 0 2348 1024" version="1.1" xmlns="http://www.w3.org/2000/svg"
     xmlns:xlink="http://www.w3.org/1999/xlink" width="73.375" height="32">
    <path
        d="M2156.43269046 499.44025196c0-269.22545662-227.20349504-487.88211203-505.68802759-487.88211204-25.64052036 0-51.9932755 1.42447277-77.63379743 5.69789255-216.51994471 30.62617651-361.81622254 186.60600458-443.01120182 306.26176362-81.19497927-119.65575902-226.49125708-275.63558709-443.01120179-306.26176362-25.64052036-3.56118343-51.9932755-5.69789255-77.63379586-5.69789255-279.19677051 0-505.68802759 218.65665383-505.68802758 487.88211207s227.20349504 487.88211203 505.68802758 487.88211046c25.64052036 0 51.9932755-1.42447277 78.34603221-5.69789256 216.51994471-31.33841287 361.81622254-187.31824095 443.01120184-306.97399997 81.19497927 119.65575902 226.49125708 275.63558709 443.01120336 306.97399997 25.64052036 3.56118343 51.9932755 5.69789255 78.34603224 5.69789256 277.06005982 0 504.26355488-218.65665383 504.26355484-487.88211046m-1494.27251105 311.24741978c-17.80591714 2.84894705-35.61183269 3.56118343-53.41774981 3.56118342-183.75705754 0-332.61452034-141.73509597-332.61452033-314.8086032C276.12790927 325.65450676 425.69760842 184.63164718 609.45466595 184.63164718c17.80591714 0 35.61183269 1.42447277 53.41774985 3.56118344 204.41192176 29.20170378 329.05333691 230.7646769 371.78753644 311.24742134-43.4464359 81.19497927-168.80008903 282.04571757-372.49977283 311.24741978m563.37919722-311.24741978c42.02196316-80.4827429 167.37561474-282.04571757 371.78753643-311.24742134 17.80591714-2.13671067 35.61183269-3.56118343 53.41774981-3.56118344 183.75705754 0 332.61452034 141.73509597 332.61451878 314.80860481 0 173.78574519-149.56969916 314.8086032-332.61451878 314.80860318-17.80591714 0-35.61183269-1.42447277-53.41774981-3.56118343-204.41192176-29.20170378-329.7655733-230.7646769-371.78753643-311.24741975"
        fill="#FFFFFF" />
    <path
        d="M469.14404435 451.72039468H773.26909728v97.57642211H469.14404435z m1215.07574054 98.28866004h102.56207984V451.72039468h-102.56207984V349.15831642h-98.28865848v102.56207826h-102.56207983v98.28866004h102.56207983v102.56207826h98.28865848z m376.06095624-455.11922638c0-24.92828242 19.94262624-45.58314659 44.15867226-45.58314504 24.92828242 0 44.87091022 20.65486262 44.87091025 45.58314504 0 26.35275674-19.94262624 45.58314659-44.87091025 45.58314661-24.21604605 0-44.15867228-20.65486262-44.15867226-45.58314661z m81.19497926 0c0-20.65486262-15.66920643-38.46077973-37.036307-38.46077975s-36.32406905 15.66920643-36.32406903 38.46077975c0 23.50380967 17.09367918 38.46077973 36.32406903 38.46077971 21.36710057 0 37.036307-14.95697005 37.036307-38.46077971z m-58.403406-28.48946586h22.07933695c17.09367918 0 23.50380967 7.12236685 23.50380969 19.23038989 0 7.8346032-3.56118343 13.53249575-10.68355027 16.38144281l10.68355027 21.36710057h-15.66920647l-7.83460322-19.2303899h-7.83460322v19.2303899h-14.24473373v-56.97893327z m20.65486265 27.77722947c6.41013044 0 9.97131389-2.13671067 9.97131389-9.25907596 0-6.41013044-2.13671067-8.54683959-9.97131389-8.5468396h-7.12236685v18.51815195l7.12236685-0.71223639z"
        fill="#FFFFFF" />
</svg>
