<svg id="图层_1" data-name="图层 1" xmlns="http://www.w3.org/2000/svg" viewBox="0 0 160 160">
  <defs>
    <style>
      .cls-1 {
        fill: #f39e66;
      }

      .cls-1, .cls-10, .cls-3, .cls-4, .cls-5, .cls-6 {
        fill-rule: evenodd;
      }

      .cls-2 {
        fill: #f8b207;
      }

      .cls-3 {
        fill: #f9aa00;
      }

      .cls-11, .cls-4 {
        fill: #dc7b3a;
      }

      .cls-12, .cls-5 {
        fill: #f08844;
      }

      .cls-6 {
        fill: #5f462f;
      }

      .cls-7 {
        fill: #ffdfb4;
      }

      .cls-8 {
        fill: #fff;
        opacity: 0.5;
      }

      .cls-9 {
        fill: #ffdf87;
      }

      .cls-10 {
        fill: #ffe984;
      }
    </style>
  </defs>
  <title>mcookie人物V2</title>
  <g>
    <g>
      <path class="cls-1" d="M52,81.55c0-6.2-.23-6.13-.23-6.13l-37.15,3.7a4.19,4.19,0,0,1,1.88,3.55,6,6,0,0,1-1.44,4.24s31.29,1.12,33,1.15S52,88.89,52,81.55Z"/>
      <path class="cls-2" d="M9.78,88a4.69,4.69,0,0,1-2.48-.71,5,5,0,0,1-.78-.59A1.42,1.42,0,1,1,8.46,84.6a1.85,1.85,0,0,0,.32.25,2,2,0,0,0,2.66-.65.43.43,0,0,1,0-.07,1.89,1.89,0,0,0-.68-2.6,1.93,1.93,0,0,0-2.57.52,1.42,1.42,0,1,1-2.3-1.67,4.79,4.79,0,0,1,6.35-1.28,4.49,4.49,0,0,1,2.28,4.1,5.86,5.86,0,0,1-.77,2.64,1.76,1.76,0,0,1-.29.36,4.79,4.79,0,0,1-2.59,1.64A4.92,4.92,0,0,1,9.78,88Z"/>
    </g>
    <path class="cls-2" d="M97.42,31.9a.73.73,0,0,1-.69-.54.71.71,0,0,1,.52-.86,6.73,6.73,0,0,0,4.83-8.17,6.7,6.7,0,0,0-8.17-4.83c-4.11,1.06-5.45,5.43-4.82,8.18A.71.71,0,0,1,87.7,26c-.86-3.82,1.29-8.71,5.86-9.88a8.13,8.13,0,1,1,4,15.75A.57.57,0,0,1,97.42,31.9Z"/>
    <path class="cls-2" d="M91.49,38A1.41,1.41,0,0,1,90.12,37c-1.83-7.07,3.61-12.86,4.23-13.5a1.42,1.42,0,1,1,2,2c-.2.2-5,5.14-3.51,10.78a1.43,1.43,0,0,1-1,1.74A1.47,1.47,0,0,1,91.49,38Z"/>
    <path class="cls-3" d="M93.19,21a3.83,3.83,0,1,1-.6,5.39,3.83,3.83,0,0,1,.6-5.39Z"/>
    <path class="cls-4" d="M126.58,76.93a8.47,8.47,0,0,0-8.31-7L62,69.88c-4.4,0-8.36,3.37-8.36,7.27,0,14.37-.1,27,.43,43.16a8.08,8.08,0,0,0,7.93,7.6c18.79,0,38.17,0,56.11,0a8.12,8.12,0,0,0,7.79-7.3c.64-18.56.64-29.14.64-43.73Z"/>
    <path class="cls-5" d="M126.58,76.94a8.46,8.46,0,0,0-8.31-7L62,69.88c-4.4,0-8.36,3.37-8.36,7.27,0,14.37-.1,24.64.43,40.79a8.07,8.07,0,0,0,7.93,7.6c18.79,0,38.17,0,56.11,0a8.12,8.12,0,0,0,7.79-7.3c.64-18.55.64-26.77.64-41.35Z"/>
    <g>
      <path class="cls-1" d="M131.15,45.86a6,6,0,0,0,5.09-.25c.3,5.67,1.34,25.87,1.34,30.73,0,10.1-9.46,8.52-9.46,8.52l2.52-39.24A4.74,4.74,0,0,0,131.15,45.86Z"/>
      <path class="cls-2" d="M133.43,44.73a4.84,4.84,0,0,1-1.82-.36A4.79,4.79,0,0,1,129,38.12a6.1,6.1,0,0,1,.47-.87,1.43,1.43,0,0,1,2-.37,1.41,1.41,0,0,1,.37,2,3.13,3.13,0,0,0-.19.36,2,2,0,0,0,0,1.48,1.95,1.95,0,1,0,2.69-2.47,1.42,1.42,0,1,1,1.28-2.53,4.78,4.78,0,0,1-2.17,9Z"/>
    </g>
    <path class="cls-5" d="M126.07,43.64c-.72-5-6.39-8.82-13.37-9.08q-22.36-.87-44.75,0c-7.16.27-12.91,4.3-13.42,9.41a73.56,73.56,0,0,0,0,15.13c.51,5,3.42,9.35,10.4,9.35l50.77,0c6.75,0,9.54-4.19,10.27-9a54.12,54.12,0,0,0,.06-15.82Z"/>
    <g>
      <path class="cls-6" d="M111,61.15H69.76A5.18,5.18,0,0,1,64.6,56V47.27a5.18,5.18,0,0,1,5.16-5.17H90.51l5.59,0,14.91,0a5.48,5.48,0,0,1,3.65,1.52,5.19,5.19,0,0,1,1.52,3.65V56A5.19,5.19,0,0,1,111,61.15Z"/>
      <path class="cls-7" d="M111,63H69.76a7.05,7.05,0,0,1-7.05-7V47.27a7.06,7.06,0,0,1,7.05-7.06H90.51l5.58,0s8.91,0,14.92,0a7.31,7.31,0,0,1,5,2.07,7,7,0,0,1,2.07,5V56A7.06,7.06,0,0,1,111,63ZM69.76,44a3.27,3.27,0,0,0-3.26,3.27V56a3.26,3.26,0,0,0,3.26,3.26H111A3.27,3.27,0,0,0,114.28,56V47.27a3.25,3.25,0,0,0-1-2.31A3.61,3.61,0,0,0,111,44c-6,0-14.92,0-14.92,0l-5.57,0Z"/>
    </g>
    <rect class="cls-8" x="70.73" y="79.18" width="40.03" height="30.4" rx="8.19" ry="8.19"/>
    <path class="cls-3" d="M90.86,84.23a2.1,2.1,0,0,0-2.27-1.89H77.8a2.11,2.11,0,0,0-2.28,1.89v20.39a2.11,2.11,0,0,0,2.28,1.89H88.59a2.11,2.11,0,0,0,2.27-1.89V84.23Z"/>
    <path class="cls-3" d="M106.21,84.3a2.2,2.2,0,0,0-2.37-2H93.23a2.2,2.2,0,0,0-2.37,2v20.24a2.2,2.2,0,0,0,2.37,2h10.61a2.2,2.2,0,0,0,2.37-2V84.3Z"/>
    <path class="cls-9" d="M78.8,104.16a1,1,0,0,1-.94-1V85.64a.95.95,0,1,1,1.89,0v17.57A1,1,0,0,1,78.8,104.16Z"/>
    <path class="cls-9" d="M94.29,104.16a1,1,0,0,1-1-1V85.64a1,1,0,0,1,1.9,0v17.57A1,1,0,0,1,94.29,104.16Z"/>
    <path class="cls-7" d="M105.07,110.33H76.42a6.41,6.41,0,0,1-6.4-6.4v-19a6.41,6.41,0,0,1,6.4-6.4h28.65a6.41,6.41,0,0,1,6.4,6.4v19A6.41,6.41,0,0,1,105.07,110.33ZM76.42,79.93a5,5,0,0,0-5,5v19a5,5,0,0,0,5,5h28.65a5,5,0,0,0,5-5v-19a5,5,0,0,0-5-5Z"/>
    <g>
      <polygon class="cls-10" points="85.22 53.3 73.74 53.3 79.2 48.93 85.22 53.3"/>
      <polyline class="cls-10" points="95.55 53.3 101.48 48.93 107.03 53.3"/>
    </g>
    <path class="cls-11" d="M66.17,131.23c1-2.2,7.57-1.64,25.09-1.58,16.59,0,22.75-.6,23.66,1.58,1.24,2.94-9.22,9.56-23.66,9.75C76.07,141.17,64.87,134.19,66.17,131.23Z"/>
    <path class="cls-12" d="M73.62,131.71c.66-1.59,5.25-1.18,17.42-1.14,11.52,0,15.8-.44,16.43,1.14.87,2.12-6.4,6.92-16.43,7C80.49,138.9,72.72,133.85,73.62,131.71Z"/>
  </g>
</svg>
