<svg id="图层_1" data-name="图层 1" xmlns="http://www.w3.org/2000/svg" viewBox="0 0 160 160">
  <defs>
    <style>
      .cls-1, .cls-5 {
        fill: #75cdd6;
      }

      .cls-2 {
        fill: #4bc2c3;
      }

      .cls-2, .cls-3, .cls-4, .cls-5 {
        fill-rule: evenodd;
      }

      .cls-3 {
        fill: #e3ffff;
      }

      .cls-4 {
        fill: #6b9292;
      }
    </style>
  </defs>
  <title>mcookie人物V2</title>
  <g>
    <path class="cls-1" d="M92.52,139a3.08,3.08,0,0,1-3.08-2.92L87,88.82a3.08,3.08,0,1,1,6.16-.31l2.42,47.26A3.09,3.09,0,0,1,92.68,139Zm-15.36,0h-.07a3.08,3.08,0,0,1-3-3.14l1-47.6a3.09,3.09,0,1,1,6.17.13l-1,47.59A3.09,3.09,0,0,1,77.16,139Zm49.89-.61a3.07,3.07,0,0,1-1.75-.55c-15.72-10.92-20.69-24.82-22.09-34.55a49.19,49.19,0,0,1,.8-18.81A3.09,3.09,0,0,1,110,86.17h0a43.85,43.85,0,0,0-.59,16.49c1.83,12.28,8.38,22.41,19.46,30.11a3.09,3.09,0,0,1-1.77,5.62Zm-84.21-1.34a3.08,3.08,0,0,1-1.76-5.62C67.62,113,60,85.12,59.94,84.84a3.09,3.09,0,0,1,5.94-1.7,49,49,0,0,1,.8,18.81c-1.4,9.73-6.36,23.63-22.08,34.55A3.1,3.1,0,0,1,42.84,137.05Z"/>
    <path class="cls-2" d="M130.47,57.62A17.93,17.93,0,0,0,113.6,41.55a531.85,531.85,0,0,0-56.47,0A17.94,17.94,0,0,0,40.19,58.15a180,180,0,0,0,.05,26.78,17.92,17.92,0,0,0,16.38,16.54,334.32,334.32,0,0,0,57.56.06,17.91,17.91,0,0,0,16.21-15.92,133.61,133.61,0,0,0,.08-28Z"/>
    <g>
      <path class="cls-3" d="M105.78,52.63A15.68,15.68,0,1,1,90.1,68.31a15.68,15.68,0,0,1,15.68-15.68Z"/>
      <path class="cls-1" d="M105.78,86a17.69,17.69,0,1,1,17.68-17.69A17.71,17.71,0,0,1,105.78,86Zm0-31.36a13.67,13.67,0,1,0,13.67,13.67A13.69,13.69,0,0,0,105.78,54.64Z"/>
    </g>
    <g>
      <path class="cls-3" d="M66.09,52.63A15.68,15.68,0,1,1,50.41,68.31,15.69,15.69,0,0,1,66.09,52.63Z"/>
      <path class="cls-1" d="M66.09,86A17.69,17.69,0,1,1,83.78,68.31,17.71,17.71,0,0,1,66.09,86Zm0-31.36A13.67,13.67,0,1,0,79.76,68.31,13.68,13.68,0,0,0,66.09,54.64Z"/>
    </g>
    <path class="cls-4" d="M115.06,68.31c0,1.87-4.16,3.38-9.27,3.38s-9.27-1.51-9.27-3.38,4.16-3.38,9.27-3.38,9.27,1.52,9.27,3.38Z"/>
    <path class="cls-4" d="M56.83,68.31c0-1.86,4.15-3.38,9.26-3.38s9.27,1.52,9.27,3.38-4.15,3.38-9.27,3.38-9.26-1.51-9.26-3.38Z"/>
    <path class="cls-5" d="M126.44,128.83a6.25,6.25,0,1,1-6.25,6.25,6.25,6.25,0,0,1,6.25-6.25Z"/>
    <path class="cls-5" d="M41.92,128.83a6.25,6.25,0,1,1-6.25,6.25,6.25,6.25,0,0,1,6.25-6.25Z"/>
    <path class="cls-5" d="M92.48,131a6.25,6.25,0,1,1-6.26,6.25A6.25,6.25,0,0,1,92.48,131Z"/>
    <path class="cls-5" d="M76.51,131a6.25,6.25,0,1,1-6.26,6.25A6.25,6.25,0,0,1,76.51,131Z"/>
  </g>
</svg>
