<svg id="图层_1" data-name="图层 1" xmlns="http://www.w3.org/2000/svg" viewBox="0 0 160 160">
  <defs>
    <style>
      .cls-1 {
        fill: #f8b207;
      }

      .cls-2 {
        fill: #f9aa00;
      }

      .cls-12, .cls-2, .cls-3, .cls-4, .cls-5 {
        fill-rule: evenodd;
      }

      .cls-10, .cls-3 {
        fill: #dc7b3a;
      }

      .cls-11, .cls-4 {
        fill: #f08844;
      }

      .cls-5 {
        fill: #5f462f;
      }

      .cls-6 {
        fill: #ffdfb4;
      }

      .cls-7 {
        fill: #fff;
        opacity: 0.5;
      }

      .cls-8 {
        fill: #ffdf87;
      }

      .cls-9 {
        fill: #ffe984;
      }

      .cls-12 {
        fill: #f39e66;
      }
    </style>
  </defs>
  <title>mcookie人物V2</title>
  <g>
    <path class="cls-1" d="M83.16,31.58a.71.71,0,0,1-.69-.53.71.71,0,0,1,.51-.87,6.71,6.71,0,1,0-3.33-13c-4.12,1-5.45,5.43-4.83,8.18a.71.71,0,0,1-1.39.31c-.86-3.82,1.29-8.7,5.87-9.87a8.13,8.13,0,0,1,4,15.75Z"/>
    <path class="cls-1" d="M77.23,37.7a1.44,1.44,0,0,1-1.38-1.07C74,29.57,79.46,23.78,80.09,23.14a1.42,1.42,0,0,1,2,2c-.21.21-5,5.15-3.51,10.79a1.43,1.43,0,0,1-1,1.73A1.49,1.49,0,0,1,77.23,37.7Z"/>
    <path class="cls-2" d="M78.92,20.69a3.83,3.83,0,1,1-.6,5.39,3.84,3.84,0,0,1,.6-5.39Z"/>
    <path class="cls-3" d="M112.58,76.62a8.46,8.46,0,0,0-8.3-7l-56.23,0c-4.4,0-8.36,3.37-8.36,7.27,0,14.37-.1,27,.43,43.17a8.06,8.06,0,0,0,7.93,7.59c18.79,0,38.17,0,56.11,0a8.12,8.12,0,0,0,7.79-7.3c.63-18.55.63-29.14.63-43.72Z"/>
    <path class="cls-4" d="M112.58,76.62a8.46,8.46,0,0,0-8.3-7l-56.23,0c-4.4,0-8.36,3.38-8.36,7.28,0,14.37-.1,24.64.43,40.79a8.07,8.07,0,0,0,7.93,7.6c18.79,0,38.17,0,56.11,0A8.12,8.12,0,0,0,112,118c.63-18.55.63-26.76.63-41.35Z"/>
    <path class="cls-4" d="M112,43.32c-.72-5-6.39-8.81-13.37-9.08q-22.36-.85-44.75,0c-7.16.27-12.91,4.3-13.41,9.4a72.86,72.86,0,0,0,0,15.13c.52,5,3.42,9.35,10.4,9.35,16.28,0,36,0,50.77,0,6.75,0,9.54-4.2,10.27-9A54.11,54.11,0,0,0,112,43.32Z"/>
    <g>
      <path class="cls-5" d="M97,60.83H55.73a5.17,5.17,0,0,1-5.16-5.16V47a5.17,5.17,0,0,1,5.16-5.16H76.48l5.59,0s8.89,0,14.91,0a5.48,5.48,0,0,1,3.65,1.52A5.14,5.14,0,0,1,102.14,47v8.72A5.17,5.17,0,0,1,97,60.83Z"/>
      <path class="cls-6" d="M97,62.73H55.73a7.07,7.07,0,0,1-7.06-7.06V47a7.07,7.07,0,0,1,7.06-7.06H76.47l5.59,0,14.92,0A7.33,7.33,0,0,1,102,42,7,7,0,0,1,104,47v8.72A7.07,7.07,0,0,1,97,62.73Zm-41.25-19A3.26,3.26,0,0,0,52.47,47v8.72a3.27,3.27,0,0,0,3.26,3.27H97a3.28,3.28,0,0,0,3.27-3.27V47a3.24,3.24,0,0,0-1-2.3,3.61,3.61,0,0,0-2.31-1c-6,0-14.92,0-14.92,0l-5.58,0Z"/>
    </g>
    <rect class="cls-7" x="56.47" y="78.87" width="40.03" height="30.4" rx="12" ry="12"/>
    <path class="cls-2" d="M76.6,83.92A2.12,2.12,0,0,0,74.32,82H63.53a2.11,2.11,0,0,0-2.27,1.9V104.3a2.11,2.11,0,0,0,2.27,1.9H74.32a2.12,2.12,0,0,0,2.28-1.9V83.92Z"/>
    <path class="cls-2" d="M91.94,84a2.19,2.19,0,0,0-2.36-2H79a2.19,2.19,0,0,0-2.36,2v20.24a2.2,2.2,0,0,0,2.36,2H89.58a2.2,2.2,0,0,0,2.36-2V84Z"/>
    <path class="cls-8" d="M64.54,103.84a1,1,0,0,1-1-.94V85.32a1,1,0,1,1,1.9,0V102.9A1,1,0,0,1,64.54,103.84Z"/>
    <path class="cls-8" d="M80,103.84a.94.94,0,0,1-1-.94V85.32a.95.95,0,1,1,1.9,0V102.9A1,1,0,0,1,80,103.84Z"/>
    <path class="cls-6" d="M90.8,110H62.15a6.41,6.41,0,0,1-6.4-6.4v-19a6.41,6.41,0,0,1,6.4-6.4H90.8a6.41,6.41,0,0,1,6.4,6.4v19A6.41,6.41,0,0,1,90.8,110ZM62.15,79.62a5,5,0,0,0-5,5v19a5,5,0,0,0,5,5H90.8a5,5,0,0,0,5-5v-19a5,5,0,0,0-5-5Z"/>
    <rect class="cls-9" x="59.56" y="49.59" width="9.03" height="3.44" transform="translate(22.58 -19.52) rotate(20.95)"/>
    <rect class="cls-9" x="84.12" y="49.59" width="9.03" height="3.44" transform="translate(-12.51 35.25) rotate(-21.04)"/>
    <path class="cls-10" d="M51.9,130.91c1-2.19,7.57-1.63,25.1-1.58,16.58.06,22.74-.6,23.66,1.58,1.24,2.94-9.22,9.57-23.66,9.75C61.8,140.86,50.61,133.88,51.9,130.91Z"/>
    <path class="cls-11" d="M59.35,131.39c.67-1.58,5.26-1.18,17.43-1.14,11.51,0,15.79-.43,16.43,1.14.86,2.13-6.41,6.92-16.43,7.06C66.23,138.59,58.45,133.54,59.35,131.39Z"/>
    <g>
      <path class="cls-12" d="M32.45,83.82c3.36,5.8,8.85,2.39,8.85,2.39L66.88,66a4.19,4.19,0,0,1-3.43-2.08,5.58,5.58,0,0,1-.56-4.65L33.46,75.06S29.08,78,32.45,83.82Z"/>
      <path class="cls-1" d="M69.12,65.21h-.05a4.81,4.81,0,0,1-4.75-5,1.63,1.63,0,0,1,.06-.45A4.74,4.74,0,0,1,65.76,57a4.83,4.83,0,0,1,3.38-1.36,4.75,4.75,0,0,1,1,.11,1.42,1.42,0,0,1-.62,2.78,1.72,1.72,0,0,0-.39,0,1.8,1.8,0,0,0-1.36.54,1.94,1.94,0,0,0-.57,1.37h0a.19.19,0,0,1,0,.08,1.92,1.92,0,0,0,1.93,1.89h0A1.93,1.93,0,0,0,71,60.61a1.42,1.42,0,1,1,2.83.24A4.77,4.77,0,0,1,69.12,65.21Z"/>
    </g>
    <g>
      <path class="cls-12" d="M114.27,79.2l-.15,8.08,34.12-25.89a4.23,4.23,0,0,1-3.44-2.08,5.58,5.58,0,0,1-.56-4.65s-25,14.26-28,15.78S114.27,79.2,114.27,79.2Z"/>
      <path class="cls-1" d="M150.47,60.59h-.05a4.83,4.83,0,0,1-4.75-5,1.63,1.63,0,0,1,.06-.45,4.75,4.75,0,0,1,4.71-4.1h.05a4.6,4.6,0,0,1,1,.11,1.42,1.42,0,1,1-.61,2.77,2.85,2.85,0,0,0-.4,0,1.93,1.93,0,0,0-1.93,1.91h0v.09a1.89,1.89,0,0,0,1.92,1.88h0a1.91,1.91,0,0,0,1.9-1.75,1.42,1.42,0,1,1,2.83.24A4.77,4.77,0,0,1,150.47,60.59Z"/>
    </g>
  </g>
</svg>
