<svg id="图层_1" data-name="图层 1" xmlns="http://www.w3.org/2000/svg" viewBox="0 0 160 160">
  <defs>
    <style>
      .cls-1 {
        fill: #f8b207;
      }

      .cls-2 {
        fill: #f9aa00;
      }

      .cls-2, .cls-3, .cls-4, .cls-5, .cls-6 {
        fill-rule: evenodd;
      }

      .cls-11, .cls-3 {
        fill: #dc7b3a;
      }

      .cls-12, .cls-4 {
        fill: #f08844;
      }

      .cls-5 {
        fill: #f39e66;
      }

      .cls-6 {
        fill: #5f462f;
      }

      .cls-7 {
        fill: #ffdfb4;
      }

      .cls-8 {
        fill: #fff;
        opacity: 0.5;
      }

      .cls-9 {
        fill: #ffdf87;
      }

      .cls-10 {
        fill: #ffe984;
      }
    </style>
  </defs>
  <title>mcookie人物V2</title>
  <g>
    <path class="cls-1" d="M83.21,30.74a.71.71,0,0,1-.68-.54.7.7,0,0,1,.51-.86,6.71,6.71,0,0,0-3.34-13c-4.11,1.06-5.44,5.43-4.82,8.19a.71.71,0,0,1-1.39.31c-.86-3.82,1.29-8.7,5.86-9.88a8.13,8.13,0,0,1,4,15.76Z"/>
    <path class="cls-1" d="M77.29,36.85a1.42,1.42,0,0,1-1.38-1.06c-1.83-7.07,3.61-12.86,4.24-13.5a1.42,1.42,0,1,1,2,2c-.2.2-5,5.14-3.51,10.78a1.43,1.43,0,0,1-1,1.74A1.45,1.45,0,0,1,77.29,36.85Z"/>
    <path class="cls-2" d="M79,19.85a3.83,3.83,0,1,1-.6,5.38,3.83,3.83,0,0,1,.6-5.38Z"/>
    <path class="cls-3" d="M112.51,75.77a8.46,8.46,0,0,0-8.31-7L48,68.72c-4.4,0-8.36,3.37-8.36,7.27,0,14.37-.1,27,.43,43.16a8.08,8.08,0,0,0,7.94,7.6c18.78,0,38.16,0,56.1,0a8.13,8.13,0,0,0,7.8-7.3c.63-18.55.63-29.14.63-43.73Z"/>
    <path class="cls-4" d="M112.51,75.78a8.47,8.47,0,0,0-8.31-7L48,68.72c-4.4,0-8.36,3.37-8.36,7.27,0,14.37-.1,24.64.43,40.8A8.07,8.07,0,0,0,48,124.38c18.78,0,38.16.05,56.1.05a8.13,8.13,0,0,0,7.8-7.3c.63-18.55.63-26.77.63-41.35Z"/>
    <path class="cls-5" d="M117,114a5.93,5.93,0,0,1,5.08.25c.3-5.68,1.34-25.92,1.34-30.79,0-10.12-9.46-8.54-9.46-8.54l2.52,39.32A4.9,4.9,0,0,1,117,114Z"/>
    <path class="cls-1" d="M120.75,124.3a1.42,1.42,0,0,1-.64-2.69,2,2,0,0,0,.91-2.48,1.94,1.94,0,0,0-3.59,0,2,2,0,0,0,0,1.49,2.43,2.43,0,0,0,.2.35,1.43,1.43,0,0,1-2.36,1.6,4.51,4.51,0,0,1-.46-.87,4.79,4.79,0,1,1,8.85-3.65,4.8,4.8,0,0,1-2.26,6.09A1.32,1.32,0,0,1,120.75,124.3Z"/>
    <path class="cls-5" d="M35.21,114a4.9,4.9,0,0,1,.52.24l2.52-39.32s-9.47-1.58-9.47,8.54c0,4.87,1,25.11,1.34,30.79A6,6,0,0,1,35.21,114Z"/>
    <path class="cls-1" d="M31.4,124.3a1.38,1.38,0,0,1-.64-.16,4.79,4.79,0,0,1,.33-8.69,4.79,4.79,0,0,1,6.27,6.25,4.55,4.55,0,0,1-.47.87,1.42,1.42,0,1,1-2.35-1.6,1.7,1.7,0,0,0,.19-.35,1.94,1.94,0,0,0-1.06-2.54,1.9,1.9,0,0,0-1.48,0,1.94,1.94,0,0,0-.14,3.53,1.41,1.41,0,0,1,.62,1.91A1.43,1.43,0,0,1,31.4,124.3Z"/>
    <path class="cls-4" d="M111.73,42.48c-.71-5-6.38-8.82-13.36-9.08q-22.38-.87-44.75,0c-7.16.27-12.92,4.31-13.42,9.41a72.86,72.86,0,0,0,0,15.13c.51,5,3.42,9.35,10.39,9.35l50.77,0c6.76,0,9.55-4.19,10.27-9a53.77,53.77,0,0,0,.06-15.82Z"/>
    <g>
      <path class="cls-6" d="M97,60H55.79a5.17,5.17,0,0,1-5.16-5.16V46.11A5.17,5.17,0,0,1,55.79,41H76.53l5.59,0S91,41,97,41a5.42,5.42,0,0,1,3.64,1.51,5.15,5.15,0,0,1,1.52,3.65v8.72A5.17,5.17,0,0,1,97,60Z"/>
      <path class="cls-7" d="M97,61.89H55.79a7.07,7.07,0,0,1-7.06-7.06V46.11a7.07,7.07,0,0,1,7.06-7.06H76.53l5.58,0s8.91,0,14.93,0a7.27,7.27,0,0,1,5,2.07,7,7,0,0,1,2.08,5v8.72A7.07,7.07,0,0,1,97,61.89Zm-41.25-19a3.28,3.28,0,0,0-3.27,3.27v8.72a3.27,3.27,0,0,0,3.27,3.26H97a3.26,3.26,0,0,0,3.26-3.26V46.11a3.25,3.25,0,0,0-1-2.31,3.67,3.67,0,0,0-2.3-1c-6,0-14.89,0-14.92,0l-5.59,0Z"/>
    </g>
    <rect class="cls-8" x="56.52" y="78.02" width="40.03" height="30.4" rx="7.82" ry="7.82"/>
    <path class="cls-2" d="M76.66,83.07a2.11,2.11,0,0,0-2.28-1.89H63.59a2.11,2.11,0,0,0-2.28,1.89v20.39a2.11,2.11,0,0,0,2.28,1.89H74.38a2.11,2.11,0,0,0,2.28-1.89V83.07Z"/>
    <path class="cls-2" d="M92,83.14a2.2,2.2,0,0,0-2.37-2H79a2.19,2.19,0,0,0-2.36,2v20.25a2.19,2.19,0,0,0,2.36,2H89.63a2.2,2.2,0,0,0,2.37-2V83.14Z"/>
    <path class="cls-9" d="M64.6,103a.94.94,0,0,1-.95-1V84.48a.95.95,0,1,1,1.89,0v17.57A.94.94,0,0,1,64.6,103Z"/>
    <path class="cls-9" d="M80.08,103a1,1,0,0,1-1-1V84.48a1,1,0,0,1,1.9,0v17.57A.94.94,0,0,1,80.08,103Z"/>
    <path class="cls-7" d="M90.86,109.18H62.21a6.41,6.41,0,0,1-6.4-6.4v-19a6.41,6.41,0,0,1,6.4-6.4H90.86a6.41,6.41,0,0,1,6.4,6.4v19A6.41,6.41,0,0,1,90.86,109.18ZM62.21,78.77a5,5,0,0,0-5,5v19a5,5,0,0,0,5,5H90.86a5,5,0,0,0,5-5v-19a5,5,0,0,0-5-5Z"/>
    <g>
      <rect class="cls-10" x="59.15" y="48.75" width="9.03" height="3.44"/>
      <rect class="cls-10" x="84.65" y="48.75" width="9.03" height="3.44"/>
    </g>
    <path class="cls-11" d="M52,130.07c1-2.2,7.57-1.64,25.09-1.58,16.59,0,22.75-.6,23.67,1.58,1.24,2.94-9.23,9.56-23.67,9.75C61.86,140,50.67,133,52,130.07Z"/>
    <path class="cls-12" d="M59.41,130.55c.66-1.59,5.25-1.18,17.42-1.14,11.52,0,15.8-.44,16.44,1.14.86,2.13-6.41,6.92-16.44,7C66.28,137.75,58.51,132.69,59.41,130.55Z"/>
  </g>
</svg>
