<svg id="图层_1" data-name="图层 1" xmlns="http://www.w3.org/2000/svg" viewBox="0 0 160 160">
  <defs>
    <style>
      .cls-1, .cls-5 {
        fill: #74cdd6;
      }

      .cls-2 {
        fill: #49c2c3;
      }

      .cls-2, .cls-3, .cls-4, .cls-5 {
        fill-rule: evenodd;
      }

      .cls-3 {
        fill: #e3ffff;
      }

      .cls-4 {
        fill: #6b9292;
      }

      .cls-6 {
        fill: #60c8d5;
      }
    </style>
  </defs>
  <title>mcookie人物V2</title>
  <g>
    <path class="cls-1" d="M74.19,134H74a3.09,3.09,0,0,1-2.92-3.25l2.42-47.26a3.09,3.09,0,0,1,6.17.32l-2.43,47.26A3.08,3.08,0,0,1,74.19,134Zm15.37,0a3.09,3.09,0,0,1-3.09-3l-1-47.59a3.08,3.08,0,0,1,3-3.15h.07a3.08,3.08,0,0,1,3.08,3l1,47.59a3.07,3.07,0,0,1-3,3.15ZM123.87,132a3.1,3.1,0,0,1-1.76-.55c-15.72-10.93-20.68-24.82-22.08-34.56a49.15,49.15,0,0,1,.8-18.8,3.09,3.09,0,0,1,5.94,1.69,43.69,43.69,0,0,0-.59,16.49c1.83,12.28,8.38,22.41,19.46,30.1a3.09,3.09,0,0,1-1.77,5.63Z"/>
    <path class="cls-2" d="M36.24,52.61A17.92,17.92,0,0,1,53.11,36.54a529.4,529.4,0,0,1,56.48,0,17.91,17.91,0,0,1,16.93,16.64,179.84,179.84,0,0,1,0,26.77A17.91,17.91,0,0,1,110.1,96.45a333.33,333.33,0,0,1-57.56.07A17.92,17.92,0,0,1,36.32,80.6a133.61,133.61,0,0,1-.08-28Z"/>
    <g>
      <path class="cls-3" d="M60.94,47.62A15.68,15.68,0,1,0,76.62,63.3,15.69,15.69,0,0,0,60.94,47.62Z"/>
      <path class="cls-1" d="M60.94,81A17.69,17.69,0,1,1,78.62,63.3,17.71,17.71,0,0,1,60.94,81Zm0-31.35A13.67,13.67,0,1,0,74.61,63.3,13.68,13.68,0,0,0,60.94,49.63Z"/>
    </g>
    <g>
      <path class="cls-3" d="M100.62,47.62A15.68,15.68,0,1,0,116.3,63.3a15.69,15.69,0,0,0-15.68-15.68Z"/>
      <path class="cls-1" d="M100.62,81A17.69,17.69,0,1,1,118.31,63.3,17.7,17.7,0,0,1,100.62,81Zm0-31.35A13.67,13.67,0,1,0,114.29,63.3,13.68,13.68,0,0,0,100.62,49.63Z"/>
    </g>
    <path class="cls-4" d="M52.58,63.3A8.36,8.36,0,1,0,60.94,55a8.36,8.36,0,0,0-8.36,8.35Z"/>
    <path class="cls-4" d="M92.27,63.3A8.36,8.36,0,1,0,100.62,55a8.35,8.35,0,0,0-8.35,8.35Z"/>
    <path class="cls-5" d="M74,129.72A6.26,6.26,0,1,0,80.28,136,6.25,6.25,0,0,0,74,129.72Z"/>
    <path class="cls-5" d="M90,129.72A6.26,6.26,0,1,0,96.25,136,6.25,6.25,0,0,0,90,129.72Z"/>
    <path class="cls-5" d="M126.9,125.07a6.25,6.25,0,1,0,6.25,6.25,6.25,6.25,0,0,0-6.25-6.25Z"/>
    <path class="cls-6" d="M47.71,126a10.15,10.15,0,0,1-9.44-6.13c-2.55-5.69-1.39-15.53,9.53-26.09a3.09,3.09,0,1,1,4.3,4.43c-8.09,7.82-9.94,15.24-8.2,19.13a4,4,0,0,0,4.21,2.47c9.48-.71,16.94-18.61,19.86-29.08a3.09,3.09,0,1,1,6,1.66c-8.37,30-21.52,33.29-25.35,33.58C48.29,126,48,126,47.71,126Z"/>
    <path class="cls-5" d="M72.06,81.22a6.26,6.26,0,1,0,6.25,6.25,6.25,6.25,0,0,0-6.25-6.25Z"/>
  </g>
</svg>
