<?xml version="1.0" encoding="utf-8"?>
<!-- Generator: Adobe Illustrator 21.1.0, SVG Export Plug-In . SVG Version: 6.00 Build 0)  -->
<svg version="1.1" id="corey" xmlns="http://www.w3.org/2000/svg" xmlns:xlink="http://www.w3.org/1999/xlink" x="0px" y="0px" width="107px" height="101px"
	 viewBox="0 0 107 101" style="enable-background:new 0 0 107 101;" xml:space="preserve">
<style type="text/css">
	.st0{fill:none;stroke:#F4A8A8;stroke-width:5.4922;stroke-linecap:round;stroke-linejoin:round;}
	.st1{fill:none;stroke:#F4A8A8;stroke-width:4.6272;stroke-linecap:round;stroke-linejoin:round;}
	.st2{fill:none;stroke:#F4A8A8;stroke-width:5.1739;stroke-linecap:round;stroke-linejoin:round;}
	.st3{fill:#F0E6E9;}
	.st4{fill:#F6A7A7;}
	.st5{clip-path:url(#SVGID_2_);}
	.st6{fill:none;stroke:#EA6262;stroke-width:1.5588;stroke-linecap:round;stroke-linejoin:round;}
	.st7{fill:#EA6262;}
	.st8{fill:#DF5252;}
	.st9{fill:#F36161;}
	.st10{fill:none;stroke:#F4A8A8;stroke-width:5.2066;stroke-linecap:round;stroke-linejoin:round;}
	.st11{fill:#FFFCFD;}
	.st12{fill:#FFE6E6;}
	.st13{fill:#726161;}
</style>
<g>
	<path class="st0" d="M58.1,75.9c0,0-3.2,13.6-15.5,19.7"/>
	<path class="st1" d="M49.9,77.2c0,0,15.3,3.2,21.6,14c0.7,1.3,1.5,3.2,1.8,4.9"/>
	<path class="st2" d="M67,52.9c0,0-3.7,13.2-36.4,29.2"/>
	<path class="st3" d="M55.3,3.5c17.1,0,31,13.9,31,31s-13.9,30.9-31,30.9S24.4,51.7,24.4,34.5l0,0C24.4,17.4,38.2,3.5,55.3,3.5z"/>
	<path class="st4" d="M55.3,9.7C68.9,9.7,80,20.8,80,34.4S68.9,59.1,55.3,59.1S30.6,48,30.6,34.4l0,0C30.6,20.8,41.7,9.8,55.3,9.7z"
		/>
	<g>
		<g>
			<g>
				<defs>
					<path id="SVGID_1_" d="M55.3,9.7C68.9,9.7,80,20.8,80,34.4S68.9,59.1,55.3,59.1S30.6,48,30.6,34.4l0,0
						C30.6,20.8,41.7,9.8,55.3,9.7z"/>
				</defs>
				<clipPath id="SVGID_2_">
					<use xlink:href="#SVGID_1_"  style="overflow:visible;"/>
				</clipPath>
				<g class="st5">
					<path class="st6" d="M69.5,24v-5.2l2.3-2.3 M63.3,16.4l-4.1,4v8.7 M61.2,12.5l-5.3,5.4v10.6 M33.7,22.2h9.5l3.5,3.6 M52.7,28.6
						l-0.2-6.3L46.7,17"/>
					<path class="st7" d="M61.3,10.8c0.9,0,1.6,0.7,1.7,1.6c0,0.9-0.7,1.6-1.6,1.7c-0.9,0-1.6-0.7-1.7-1.6l0,0
						C59.6,11.5,60.3,10.8,61.3,10.8z"/>
					<path class="st7" d="M63.9,14.3c0.9,0,1.6,0.7,1.7,1.6c0,0.9-0.7,1.6-1.6,1.7c-0.9,0-1.6-0.7-1.7-1.6l0,0
						C62.4,15,63.1,14.3,63.9,14.3z"/>
					<path class="st7" d="M69.5,23c0.9,0,1.6,0.7,1.7,1.6c0,0.9-0.7,1.6-1.6,1.7c-0.9,0-1.6-0.7-1.7-1.6l0,0
						C68,23.7,68.7,23,69.5,23z"/>
					<path class="st7" d="M46.2,14.9c0.9,0,1.6,0.7,1.7,1.6c0,0.9-0.7,1.6-1.6,1.7c-0.9,0-1.6-0.7-1.7-1.6l0,0
						C44.7,15.6,45.4,14.9,46.2,14.9z"/>
					<path class="st7" d="M46.8,24.3c0.9,0,1.6,0.7,1.7,1.6c0.1,0.9-0.7,1.6-1.6,1.7c-0.9,0-1.6-0.7-1.7-1.6l0,0
						C45.2,25,45.9,24.3,46.8,24.3z"/>
				</g>
			</g>
		</g>
	</g>
	<path class="st8" d="M93,38.7c-0.6-4.8-4.6-8.6-9.5-9c-18.6-1.3-37.3-1.3-55.9,0c-5,0.3-9.1,4.3-9.6,9.4c-1.2,12-1.2,24.1,0,36.1
		c0.5,4.8,4.3,8.7,9.2,9.3c18.8,2.1,37.9,2.1,56.7,0c4.6-0.5,8.4-4.1,9.1-8.9C94.7,63.3,94.7,50.9,93,38.7z"/>
	<path class="st9" d="M92.3,40c-0.5-4.5-3.6-8-7.5-8.3c-14.6-1.2-29.3-1.2-43.8,0c-3.9,0.3-7.2,4-7.6,8.7c-0.9,11.1-0.9,22.4,0,33.5
		c0.4,4.5,3.4,8.1,7.2,8.6c14.8,1.9,29.7,2,44.5,0c3.6-0.5,6.6-3.9,7.1-8.2C93.5,62.8,93.5,51.5,92.3,40L92.3,40z"/>
	<path class="st10" d="M25,50.2c0,0-3.1,20.6,16,31.4"/>
	<path class="st11" d="M40.9,9.7c2.2,0,3.9,1.7,3.9,3.9s-1.7,3.9-3.9,3.9c-2.2,0-3.9-1.7-3.9-3.9S38.8,9.7,40.9,9.7L40.9,9.7z"/>
	<path class="st4" d="M63.9,37.7c0.8,0,1.6,0,2.3,0.1c1.9,0.1,3.9,0.3,5.8,0.6c1.9,0.3,3.9,0.7,5.8,1.3c1.1,0.3,2.3,0.7,3.5,1.2
		c0.8,0.3,1.6,0.7,2.4,1.1c0.6,0.3,1.2,0.6,1.7,1c0.5,0.3,0.9,0.6,1.3,0.9c0.3,0.2,0.6,0.5,0.9,0.7c0.3,0.2,0.5,0.4,0.7,0.6
		c1.2,1,2.2,2.2,3.1,3.6c0.1,0.2,0.2,0.4,0.3,0.6c0.1,0.2,0.2,0.4,0.3,0.6c0.1,0.3,0.3,0.6,0.4,0.9c0.1,0.4,0.3,0.8,0.4,1.2
		c0.3,1.4,0.3,2.8,0,4.3c-0.1,0.3-0.2,0.8-0.4,1.3c-0.2,0.6-0.5,1.1-0.8,1.6c-0.3,0.6-0.7,1.1-1.1,1.6c-0.6,0.7-1.2,1.4-1.9,2
		c-1.1,0.9-2.2,1.7-3.5,2.4c-0.8,0.5-1.7,0.9-2.5,1.3c-0.7,0.3-1.4,0.6-2.2,0.9c-1.1,0.4-2.2,0.8-3.5,1.1s-2.3,0.6-3.6,0.8
		c-1.4,0.3-2.9,0.5-4.4,0.6c-1.6,0.2-3.4,0.2-5,0.2c-1.5,0-3.1-0.1-4.7-0.2c-1.5-0.1-3-0.3-4.6-0.6c-1.2-0.2-2.4-0.5-3.7-0.8
		c-1.2-0.3-2.4-0.7-3.6-1.1c-0.9-0.3-1.7-0.7-2.6-1.1c-0.7-0.3-1.5-0.7-2.2-1.1c-1.2-0.7-2.4-1.5-3.6-2.4l-0.5-0.4
		c-1-0.9-1.9-2-2.6-3.3c-0.3-0.4-0.5-0.9-0.7-1.4c-0.3-0.6-0.4-1.2-0.6-1.9c-0.3-1.4-0.3-2.8,0-4.3c0.1-0.4,0.2-0.8,0.4-1.2
		c0.1-0.3,0.2-0.6,0.4-0.8c0.1-0.3,0.2-0.5,0.3-0.6c0.1-0.2,0.2-0.4,0.3-0.6c0.7-1.1,1.5-2.1,2.4-2.9l0.6-0.5
		c0.2-0.2,0.5-0.4,0.7-0.6c0.2-0.2,0.6-0.4,1-0.7c0.4-0.3,0.9-0.6,1.3-0.9c0.6-0.4,1.2-0.7,1.8-1c0.8-0.4,1.6-0.8,2.4-1.1
		c1.1-0.4,2.2-0.8,3.5-1.2c1.7-0.5,3.5-0.9,5.3-1.2c2-0.3,4.2-0.6,6.2-0.6c0.7,0,1.4-0.1,2.1-0.1L63.9,37.7z"/>
	<path class="st12" d="M67.2,40.9C80.9,40.9,92,46.7,92,54S80.9,67.1,67.2,67.1S42.4,61.2,42.4,54S53.5,40.9,67.2,40.9z"/>
	<path class="st13" d="M62,52c0-0.6-0.5-1.2-1.2-1.2l0,0h-3.8c-0.6,0-1.2,0.5-1.2,1.2v3.8c0,0.6,0.5,1.2,1.2,1.2h3.8
		c0.6,0,1.2-0.5,1.2-1.2V52z"/>
	<path class="st13" d="M86.3,52c0-0.6-0.5-1.2-1.2-1.2l0,0h-3.8c-0.6,0-1.2,0.5-1.2,1.2v3.8c0,0.6,0.5,1.2,1.1,1.2l0,0H85
		c0.6,0,1.2-0.5,1.2-1.2L86.3,52L86.3,52z"/>
</g>
</svg>
