<svg id="图层_1" data-name="图层 1" xmlns="http://www.w3.org/2000/svg" viewBox="0 0 160 160">
  <defs>
    <style>
      .cls-1 {
        fill: #93cbf5;
      }

      .cls-2, .cls-3 {
        fill: #61b5f3;
      }

      .cls-2, .cls-4 {
        fill-rule: evenodd;
      }

      .cls-4 {
        fill: #cce9fe;
      }

      .cls-5 {
        fill: #53738b;
      }

      .cls-6 {
        fill: #5eccf6;
      }
    </style>
  </defs>
  <title>mcookie人物V2</title>
  <g>
    <path class="cls-1" d="M90,138a3.09,3.09,0,0,1-3.09-2.93l-1.14-22.4a3.08,3.08,0,1,1,6.16-.32l1.15,22.4A3.09,3.09,0,0,1,90.19,138Zm-28.55,0h-.16a3.1,3.1,0,0,1-2.93-3.24l1.15-22.4a3.09,3.09,0,0,1,6.17.32l-1.15,22.4A3.09,3.09,0,0,1,61.48,138Zm66.73-3.53a3.88,3.88,0,0,1-.48,0,3.09,3.09,0,0,1-2.58-3.52C130,99.8,108.52,86,108.3,85.82a3.09,3.09,0,0,1,3.28-5.23c1,.64,25.12,16.19,19.67,51.3A3.08,3.08,0,0,1,128.21,134.51Zm-103.85,0a3.08,3.08,0,0,1-3-2.62C15.87,96.78,40,81.23,41,80.59a3.08,3.08,0,0,1,3.28,5.22C43.39,86.38,22.61,100,27.42,131a3.08,3.08,0,0,1-2.58,3.52A3.88,3.88,0,0,1,24.36,134.51Z"/>
    <path class="cls-2" d="M120.36,61.93a12.25,12.25,0,0,0-11.29-10.57,489,489,0,0,0-66.3,0A12.29,12.29,0,0,0,31.38,62.37a211.76,211.76,0,0,0,.05,42.2,12.24,12.24,0,0,0,10.89,10.94,307.4,307.4,0,0,0,67.26,0,12.23,12.23,0,0,0,10.71-10.46,158.41,158.41,0,0,0,.07-43.17Z"/>
    <path class="cls-3" d="M76.07,55.59a3.1,3.1,0,0,1-3-2.47c-1.47-7.21-1-21.74,11.35-25a3.08,3.08,0,1,1,1.59,6c-4,1.07-6.33,4.11-7.08,9.3a28.43,28.43,0,0,0,.19,8.53,3.09,3.09,0,0,1-2.41,3.64A3.26,3.26,0,0,1,76.07,55.59Z"/>
    <path class="cls-2" d="M82,22.94A7.86,7.86,0,1,1,74.1,30.8,7.86,7.86,0,0,1,82,22.94Z"/>
    <g>
      <path class="cls-4" d="M64.86,92.88a7.36,7.36,0,0,1-6,2.77C55,95.5,51.23,95.29,47.43,95a6.42,6.42,0,0,1-5.94-5.83,116,116,0,0,1,0-20.33,6.4,6.4,0,0,1,6-5.85,537.59,537.59,0,0,1,56.06,0,6.41,6.41,0,0,1,6,5.91,133.54,133.54,0,0,1,0,20.2,6.41,6.41,0,0,1-6,5.92q-5.57.36-11.14.59a7.36,7.36,0,0,1-6.16-2.94c-2.35-3.12-5.74-5.8-10.44-5.8-4.9,0-8.53,2.81-11,6Z"/>
      <path class="cls-1" d="M59.1,98.12h-.37c-3.8-.15-7.65-.35-11.46-.6A8.85,8.85,0,0,1,39,89.43a119,119,0,0,1,0-20.76,8.92,8.92,0,0,1,8.38-8.11,545.36,545.36,0,0,1,56.32,0,8.9,8.9,0,0,1,8.37,8.19,137.31,137.31,0,0,1,0,20.58,8.93,8.93,0,0,1-8.26,8.19c-3.73.25-7.5.45-11.21.59a9.87,9.87,0,0,1-8.24-3.91C82,91,79.12,89.37,75.91,89.37c-3.38,0-6.45,1.69-9.12,5A9.87,9.87,0,0,1,59.1,98.12ZM76,64.77c-9.36,0-18.81.24-28.29.72A4,4,0,0,0,44,69.09,114,114,0,0,0,44,89a3.93,3.93,0,0,0,3.65,3.59c3.76.25,7.57.45,11.32.6a4.91,4.91,0,0,0,4-1.84h0c3.6-4.52,8.09-6.91,13-6.91S85,86.78,88.32,91.22a4.88,4.88,0,0,0,4.1,2c3.66-.15,7.39-.35,11.07-.59a4,4,0,0,0,3.66-3.64,132.53,132.53,0,0,0,0-19.82,4,4,0,0,0-3.72-3.64C94.43,65,85.24,64.77,76,64.77Z"/>
    </g>
    <path class="cls-5" d="M63.68,82.63a2,2,0,0,1-.59-.09L52.72,79.37a2,2,0,0,1,1.17-3.83L64.26,78.7a2,2,0,0,1-.58,3.93Zm23.37,0a2,2,0,0,1-.59-3.93l10.37-3.16A2,2,0,1,1,98,79.37L87.63,82.54A2,2,0,0,1,87.05,82.63Z"/>
    <path class="cls-6" d="M86.51,46.81a1.24,1.24,0,0,1-1.17-.88,1.22,1.22,0,0,1,.81-1.54A14.22,14.22,0,1,0,68.36,35a1.22,1.22,0,0,1-.81,1.54A1.24,1.24,0,0,1,66,35.72a16.7,16.7,0,1,1,20.88,11A1.19,1.19,0,0,1,86.51,46.81Z"/>
    <path class="cls-1" d="M90,138a3.09,3.09,0,0,1-3.09-2.93l-1.14-22.4a3.08,3.08,0,1,1,6.16-.32l1.15,22.4A3.09,3.09,0,0,1,90.19,138Zm-28.55,0h-.16a3.1,3.1,0,0,1-2.93-3.24l1.15-22.4a3.09,3.09,0,0,1,6.17.32l-1.15,22.4A3.09,3.09,0,0,1,61.48,138Zm66.73-3.53a3.88,3.88,0,0,1-.48,0,3.09,3.09,0,0,1-2.58-3.52C130,99.8,108.52,86,108.3,85.82a3.09,3.09,0,0,1,3.28-5.23c1,.64,25.12,16.19,19.67,51.3A3.08,3.08,0,0,1,128.21,134.51Zm-103.85,0a3.08,3.08,0,0,1-3-2.62C15.87,96.78,40,81.23,41,80.59a3.08,3.08,0,0,1,3.28,5.22C43.39,86.38,22.61,100,27.42,131a3.08,3.08,0,0,1-2.58,3.52A3.88,3.88,0,0,1,24.36,134.51Z"/>
    <path class="cls-2" d="M120.36,61.93a12.25,12.25,0,0,0-11.29-10.57,489,489,0,0,0-66.3,0A12.29,12.29,0,0,0,31.38,62.37a211.76,211.76,0,0,0,.05,42.2,12.24,12.24,0,0,0,10.89,10.94,307.4,307.4,0,0,0,67.26,0,12.23,12.23,0,0,0,10.71-10.46,158.41,158.41,0,0,0,.07-43.17Z"/>
    <path class="cls-3" d="M76.07,55.59a3.1,3.1,0,0,1-3-2.47c-1.47-7.21-1-21.74,11.35-25a3.08,3.08,0,1,1,1.59,6c-4,1.07-6.33,4.11-7.08,9.3a28.43,28.43,0,0,0,.19,8.53,3.09,3.09,0,0,1-2.41,3.64A3.26,3.26,0,0,1,76.07,55.59Z"/>
    <path class="cls-2" d="M82,22.94A7.86,7.86,0,1,1,74.1,30.8,7.86,7.86,0,0,1,82,22.94Z"/>
    <g>
      <path class="cls-4" d="M64.86,92.88a7.36,7.36,0,0,1-6,2.77C55,95.5,51.23,95.29,47.43,95a6.42,6.42,0,0,1-5.94-5.83,116,116,0,0,1,0-20.33,6.4,6.4,0,0,1,6-5.85,537.59,537.59,0,0,1,56.06,0,6.41,6.41,0,0,1,6,5.91,133.54,133.54,0,0,1,0,20.2,6.41,6.41,0,0,1-6,5.92q-5.57.36-11.14.59a7.36,7.36,0,0,1-6.16-2.94c-2.35-3.12-5.74-5.8-10.44-5.8-4.9,0-8.53,2.81-11,6Z"/>
      <path class="cls-1" d="M59.1,98.12h-.37c-3.8-.15-7.65-.35-11.46-.6A8.85,8.85,0,0,1,39,89.43a119,119,0,0,1,0-20.76,8.92,8.92,0,0,1,8.38-8.11,545.36,545.36,0,0,1,56.32,0,8.9,8.9,0,0,1,8.37,8.19,137.31,137.31,0,0,1,0,20.58,8.93,8.93,0,0,1-8.26,8.19c-3.73.25-7.5.45-11.21.59a9.87,9.87,0,0,1-8.24-3.91C82,91,79.12,89.37,75.91,89.37c-3.38,0-6.45,1.69-9.12,5A9.87,9.87,0,0,1,59.1,98.12ZM76,64.77c-9.36,0-18.81.24-28.29.72A4,4,0,0,0,44,69.09,114,114,0,0,0,44,89a3.93,3.93,0,0,0,3.65,3.59c3.76.25,7.57.45,11.32.6a4.91,4.91,0,0,0,4-1.84h0c3.6-4.52,8.09-6.91,13-6.91S85,86.78,88.32,91.22a4.88,4.88,0,0,0,4.1,2c3.66-.15,7.39-.35,11.07-.59a4,4,0,0,0,3.66-3.64,132.53,132.53,0,0,0,0-19.82,4,4,0,0,0-3.72-3.64C94.43,65,85.24,64.77,76,64.77Z"/>
    </g>
    <path class="cls-5" d="M63.68,82.63a2,2,0,0,1-.59-.09L52.72,79.37a2,2,0,0,1,1.17-3.83L64.26,78.7a2,2,0,0,1-.58,3.93Zm23.37,0a2,2,0,0,1-.59-3.93l10.37-3.16A2,2,0,1,1,98,79.37L87.63,82.54A2,2,0,0,1,87.05,82.63Z"/>
    <path class="cls-6" d="M86.51,46.81a1.24,1.24,0,0,1-1.17-.88,1.22,1.22,0,0,1,.81-1.54A14.22,14.22,0,1,0,68.36,35a1.22,1.22,0,0,1-.81,1.54A1.24,1.24,0,0,1,66,35.72a16.7,16.7,0,1,1,20.88,11A1.19,1.19,0,0,1,86.51,46.81Z"/>
  </g>
</svg>
