<?xml version="1.0" standalone="no"?><!DOCTYPE svg PUBLIC "-//W3C//DTD SVG 1.1//EN" "http://www.w3.org/Graphics/SVG/1.1/DTD/svg11.dtd"><svg t="1550829046315" class="icon" style="" viewBox="0 0 1024 1024" version="1.1" xmlns="http://www.w3.org/2000/svg" p-id="8465" xmlns:xlink="http://www.w3.org/1999/xlink" width="32" height="32"><defs><style type="text/css"></style></defs><path d="M97.154405 628.527386l381.708627 381.762627c8.743991 8.717991 20.79398 13.702987 33.110968 13.702987 12.368988 0 24.472976-4.984995 33.109968-13.702987l381.762627-381.762627c13.382987-13.382987 17.381983-33.536967 10.13099-51.02595-7.251993-17.514983-24.366976-28.924972-43.294958-28.924972H689.951826V47.506954c0-26.233974-21.266979-47.499954-47.499953-47.499954H381.549127c-26.220974 0-47.478954 21.244979-47.498953 47.460954l-0.001 0.039 0.001 0.039v501.03051H130.265373a46.823954 46.823954 0 0 0-43.294958 28.924972c-2.398998 5.784994-3.518997 11.890988-3.518996 17.888983 0 12.209988 4.691995 24.178976 13.702986 33.136967z" p-id="8466"></path></svg>